<svg width="24" height="24" viewBox="0 0 24 24" fill="none" xmlns="http://www.w3.org/2000/svg">
<path fill-rule="evenodd" clip-rule="evenodd" d="M15.4401 3.69V3.52C15.4401 2.68053 14.7595 2 13.9201 2H9.38007C8.5406 2 7.86007 2.68053 7.86007 3.52V3.66C5.66879 3.84277 3.98724 5.68114 4.00007 7.88V18.52C4.00007 19.6409 4.44605 20.7158 5.23962 21.5075C6.03318 22.2992 7.10913 22.7427 8.23007 22.74H15.0801C16.201 22.7427 17.277 22.2992 18.0705 21.5075C18.8641 20.7158 19.3101 19.6409 19.3101 18.52V7.88C19.3021 5.69099 17.6216 3.87154 15.4401 3.69ZM9.37898 3.52H13.939V4.71H9.37898V3.52ZM11.7018 9.14H8.58175C8.16754 9.14 7.83175 9.47579 7.83175 9.89C7.83175 10.3042 8.16754 10.64 8.58175 10.64H11.7018C12.116 10.64 12.4518 10.3042 12.4518 9.89C12.4518 9.47579 12.116 9.14 11.7018 9.14ZM13.8917 16.69H8.58175C8.16754 16.69 7.83175 16.3542 7.83175 15.94C7.83175 15.5258 8.16754 15.19 8.58175 15.19H13.8917C14.306 15.19 14.6417 15.5258 14.6417 15.94C14.6417 16.3542 14.306 16.69 13.8917 16.69ZM8.58175 13.76H14.7218C15.136 13.76 15.4718 13.4242 15.4718 13.01C15.4718 12.5958 15.136 12.26 14.7218 12.26H8.58175C8.16754 12.26 7.83175 12.5958 7.83175 13.01C7.83175 13.4242 8.16754 13.76 8.58175 13.76Z" fill="#878A99"/>
</svg>
