<svg width="217" height="30" viewBox="0 0 217 30" fill="none" xmlns="http://www.w3.org/2000/svg">
<path d="M0.32 14.92C0.32 12.1467 0.92 9.68 2.12 7.52C3.32 5.33333 4.98667 3.64 7.12 2.44C9.28 1.21333 11.72 0.599998 14.44 0.599998C17.7733 0.599998 20.6267 1.48 23 3.24C25.3733 5 26.96 7.4 27.76 10.44H20.24C19.68 9.26667 18.88 8.37333 17.84 7.76C16.8267 7.14667 15.6667 6.84 14.36 6.84C12.2533 6.84 10.5467 7.57333 9.24 9.04C7.93333 10.5067 7.28 12.4667 7.28 14.92C7.28 17.3733 7.93333 19.3333 9.24 20.8C10.5467 22.2667 12.2533 23 14.36 23C15.6667 23 16.8267 22.6933 17.84 22.08C18.88 21.4667 19.68 20.5733 20.24 19.4H27.76C26.96 22.44 25.3733 24.84 23 26.6C20.6267 28.3333 17.7733 29.2 14.44 29.2C11.72 29.2 9.28 28.6 7.12 27.4C4.98667 26.1733 3.32 24.48 2.12 22.32C0.92 20.16 0.32 17.6933 0.32 14.92ZM45.2288 29.28C42.5888 29.28 40.1621 28.6667 37.9488 27.44C35.7621 26.2133 34.0154 24.5067 32.7088 22.32C31.4287 20.1067 30.7887 17.6267 30.7887 14.88C30.7887 12.1333 31.4287 9.66667 32.7088 7.48C34.0154 5.29333 35.7621 3.58667 37.9488 2.36C40.1621 1.13333 42.5888 0.52 45.2288 0.52C47.8688 0.52 50.2821 1.13333 52.4688 2.36C54.6821 3.58667 56.4154 5.29333 57.6688 7.48C58.9488 9.66667 59.5888 12.1333 59.5888 14.88C59.5888 17.6267 58.9488 20.1067 57.6688 22.32C56.3888 24.5067 54.6554 26.2133 52.4688 27.44C50.2821 28.6667 47.8688 29.28 45.2288 29.28ZM45.2288 23.04C47.4688 23.04 49.2554 22.2933 50.5887 20.8C51.9488 19.3067 52.6288 17.3333 52.6288 14.88C52.6288 12.4 51.9488 10.4267 50.5887 8.96C49.2554 7.46666 47.4688 6.72 45.2288 6.72C42.9621 6.72 41.1488 7.45333 39.7888 8.92C38.4554 10.3867 37.7888 12.3733 37.7888 14.88C37.7888 17.36 38.4554 19.3467 39.7888 20.84C41.1488 22.3067 42.9621 23.04 45.2288 23.04ZM70.1141 0.919999V17.72C70.1141 19.4 70.5274 20.6933 71.3541 21.6C72.1807 22.5067 73.3941 22.96 74.9941 22.96C76.5941 22.96 77.8207 22.5067 78.6741 21.6C79.5274 20.6933 79.9541 19.4 79.9541 17.72V0.919999H86.7941V17.68C86.7941 20.1867 86.2607 22.3067 85.1941 24.04C84.1274 25.7733 82.6874 27.08 80.8741 27.96C79.0874 28.84 77.0874 29.28 74.8741 29.28C72.6607 29.28 70.6741 28.8533 68.9141 28C67.1807 27.12 65.8074 25.8133 64.7941 24.08C63.7807 22.32 63.2741 20.1867 63.2741 17.68V0.919999H70.1141ZM105.917 29L100.077 18.4H98.4372V29H91.5972V0.919999H103.077C105.291 0.919999 107.171 1.30667 108.717 2.08C110.291 2.85333 111.464 3.92 112.237 5.28C113.011 6.61333 113.397 8.10667 113.397 9.76C113.397 11.6267 112.864 13.2933 111.797 14.76C110.757 16.2267 109.211 17.2667 107.157 17.88L113.637 29H105.917ZM98.4372 13.56H102.677C103.931 13.56 104.864 13.2533 105.477 12.64C106.117 12.0267 106.437 11.16 106.437 10.04C106.437 8.97333 106.117 8.13333 105.477 7.52C104.864 6.90667 103.931 6.6 102.677 6.6H98.4372V13.56ZM127.851 29.28C125.798 29.28 123.958 28.9467 122.331 28.28C120.704 27.6133 119.398 26.6267 118.411 25.32C117.451 24.0133 116.944 22.44 116.891 20.6H124.171C124.278 21.64 124.638 22.44 125.251 23C125.864 23.5333 126.664 23.8 127.651 23.8C128.664 23.8 129.464 23.5733 130.051 23.12C130.638 22.64 130.931 21.9867 130.931 21.16C130.931 20.4667 130.691 19.8933 130.211 19.44C129.758 18.9867 129.184 18.6133 128.491 18.32C127.824 18.0267 126.864 17.6933 125.611 17.32C123.798 16.76 122.318 16.2 121.171 15.64C120.024 15.08 119.038 14.2533 118.211 13.16C117.384 12.0667 116.971 10.64 116.971 8.88C116.971 6.26667 117.918 4.22667 119.811 2.76C121.704 1.26667 124.171 0.52 127.211 0.52C130.304 0.52 132.798 1.26667 134.691 2.76C136.584 4.22667 137.598 6.28 137.731 8.92H130.331C130.278 8.01333 129.944 7.30667 129.331 6.8C128.718 6.26667 127.931 6 126.971 6C126.144 6 125.478 6.22667 124.971 6.68C124.464 7.10666 124.211 7.73333 124.211 8.56C124.211 9.46667 124.638 10.1733 125.491 10.68C126.344 11.1867 127.678 11.7333 129.491 12.32C131.304 12.9333 132.771 13.52 133.891 14.08C135.038 14.64 136.024 15.4533 136.851 16.52C137.678 17.5867 138.091 18.96 138.091 20.64C138.091 22.24 137.678 23.6933 136.851 25C136.051 26.3067 134.878 27.3467 133.331 28.12C131.784 28.8933 129.958 29.28 127.851 29.28ZM149.14 6.4V12.08H158.3V17.36H149.14V23.52H159.5V29H142.3V0.919999H159.5V6.4H149.14ZM178.261 29L172.421 18.4H170.781V29H163.941V0.919999H175.421C177.634 0.919999 179.514 1.30667 181.061 2.08C182.634 2.85333 183.808 3.92 184.581 5.28C185.354 6.61333 185.741 8.10667 185.741 9.76C185.741 11.6267 185.208 13.2933 184.141 14.76C183.101 16.2267 181.554 17.2667 179.501 17.88L185.981 29H178.261ZM170.781 13.56H175.021C176.274 13.56 177.208 13.2533 177.821 12.64C178.461 12.0267 178.781 11.16 178.781 10.04C178.781 8.97333 178.461 8.13333 177.821 7.52C177.208 6.90667 176.274 6.6 175.021 6.6H170.781V13.56ZM207.515 24.04H197.035L195.355 29H188.195L198.355 0.919999H206.275L216.435 29H209.195L207.515 24.04ZM205.755 18.76L202.275 8.48L198.835 18.76H205.755Z" fill="#0056D2"/>
</svg>
