<svg width="24" height="24" viewBox="0 0 24 24" fill="none" xmlns="http://www.w3.org/2000/svg">
<path fill-rule="evenodd" clip-rule="evenodd" d="M21 12.6339H18.77V9.27385C18.7682 9.07238 18.6895 8.87921 18.55 8.73385L12.55 2.73385C12.4023 2.5928 12.2041 2.51712 12 2.52385H9.41C7.09821 2.52935 5.2255 4.40206 5.22 6.71385V12.6339H3C2.58579 12.6339 2.25 12.9696 2.25 13.3839C2.25 13.7981 2.58579 14.1339 3 14.1339H21C21.4142 14.1339 21.75 13.7981 21.75 13.3839C21.75 12.9696 21.4142 12.6339 21 12.6339ZM12.75 5.09385L16.2 8.53385H13.71C13.1577 8.53385 12.71 8.08614 12.71 7.53385L12.75 5.09385ZM7.51722 4.80646C7.01808 5.31498 6.742 6.00134 6.75 6.71385L6.73 12.6339H17.25V10.0539H13.71C12.3426 10.0484 11.2355 8.94124 11.23 7.57385V4.00385H9.41C8.69746 4.00912 8.01636 4.29794 7.51722 4.80646Z" fill="#3847FF"/>
<path d="M6 14.6339C5.58579 14.6339 5.25 14.9696 5.25 15.3839V17.3839C5.25 17.7981 5.58579 18.1339 6 18.1339C6.41421 18.1339 6.75 17.7981 6.75 17.3839V15.3839C6.75 14.9696 6.41421 14.6339 6 14.6339Z" fill="#3847FF"/>
<path d="M18 14.6339C17.5858 14.6339 17.25 14.9696 17.25 15.3839V17.3839C17.25 17.7981 17.5858 18.1339 18 18.1339C18.4142 18.1339 18.75 17.7981 18.75 17.3839V15.3839C18.75 14.9696 18.4142 14.6339 18 14.6339Z" fill="#3847FF"/>
<path d="M14.75 18.2039V15.3839C14.75 14.9696 14.4142 14.6339 14 14.6339C13.5858 14.6339 13.25 14.9696 13.25 15.3839V18.3839C13.2514 18.4985 13.2788 18.6113 13.33 18.7139L14.33 20.7139C14.4572 20.9682 14.7157 21.1302 15 21.1339C15.1177 21.1313 15.2335 21.104 15.34 21.0539C15.7049 20.8668 15.8518 20.4214 15.67 20.0539L14.75 18.2039Z" fill="#3847FF"/>
<path d="M10 14.6339C9.58579 14.6339 9.25 14.9696 9.25 15.3839V18.2039L8.33 20.0039C8.1496 20.374 8.30137 20.8204 8.67 21.0039C8.84738 21.0933 9.05327 21.1076 9.24135 21.0437C9.42942 20.9797 9.58389 20.8429 9.67 20.6639L10.67 18.6639C10.7212 18.5613 10.7486 18.4485 10.75 18.3339V15.3339C10.7236 14.9393 10.3954 14.633 10 14.6339Z" fill="#3847FF"/>
</svg>
