<svg width="40" height="40" viewBox="0 0 40 40" fill="none" xmlns="http://www.w3.org/2000/svg">
<path d="M30.1073 14.8821L30.9696 19.7778C31.185 21.0006 30.2273 22.119 28.9647 22.119H22.6323C22.0047 22.119 21.5267 22.6721 21.6283 23.2808L22.4383 28.1343C22.5699 28.9228 22.5323 29.7296 22.3279 30.503C22.1587 31.1436 21.6552 31.6581 20.9931 31.8669L20.8159 31.9228C20.4158 32.049 19.9791 32.0196 19.6018 31.8411C19.1865 31.6447 18.8828 31.2863 18.7702 30.8601L18.1887 28.6595C18.0037 27.9593 17.7343 27.2835 17.3868 26.6449C16.8792 25.7118 16.0943 24.965 15.2784 24.2748L13.5199 22.787C13.0241 22.3675 12.7638 21.7393 12.8202 21.0987L13.8128 9.82751C13.9039 8.79366 14.7842 8 15.84 8H21.5216C25.7765 8 29.4078 10.9107 30.1073 14.8821Z" stroke="#9F9F9F" stroke-width="2"/>
<path d="M9 22.119L10.1875 8.63514C10.2176 8.29359 9.94364 8 9.59486 8C9.26633 8 9 8.26178 9 8.58471V22.119Z" stroke="#9F9F9F" stroke-width="2"/>
</svg>
