<svg width="22" height="20" viewBox="0 0 22 20" fill="none" xmlns="http://www.w3.org/2000/svg">
<path d="M1.95743 11.8359L1.29513 12.3686L1.29513 12.3686L1.95743 11.8359ZM1.95743 8.16505L2.61974 8.69783L1.95743 8.16505ZM19.6799 11.8359L20.3422 12.3686L19.6799 11.8359ZM19.6799 8.16505L20.3422 7.63227L20.3422 7.63227L19.6799 8.16505ZM20.6374 10.0005L21.4874 10.0005L20.6374 10.0005ZM2.41926 0.398959C2.08732 0.0670136 1.54913 0.0670136 1.21718 0.398959C0.885237 0.730905 0.885237 1.2691 1.21718 1.60104L2.41926 0.398959ZM19.2172 19.601C19.5491 19.933 20.0873 19.933 20.4193 19.601C20.7512 19.2691 20.7512 18.7309 20.4193 18.399L19.2172 19.601ZM14.4756 17.3333C14.8996 17.1319 15.0801 16.6249 14.8787 16.2009C14.6773 15.7768 14.1702 15.5964 13.7462 15.7978L14.4756 17.3333ZM4.33314 6.79959C4.66832 6.47091 4.67359 5.93275 4.34492 5.59756C4.01624 5.26238 3.47808 5.25711 3.14289 5.58579L4.33314 6.79959ZM10.0772 13.5364C10.537 13.6314 10.9867 13.3358 11.0817 12.8761C11.1768 12.4164 10.8811 11.9666 10.4214 11.8716L10.0772 13.5364ZM8.92641 10.3793C8.83324 9.91919 8.38472 9.62173 7.92462 9.71489C7.46452 9.80806 7.16706 10.2566 7.26022 10.7167L8.92641 10.3793ZM10.8187 16.5145C9.17034 16.5145 7.56807 15.7847 6.12345 14.7313C4.68467 13.6821 3.47148 12.3619 2.61974 11.3031L1.29513 12.3686C2.1979 13.4909 3.51752 14.935 5.12183 16.1049C6.72029 17.2705 8.67139 18.2145 10.8187 18.2145V16.5145ZM10.8187 3.48645C12.467 3.48645 14.0693 4.21621 15.5139 5.26964C16.9527 6.3188 18.1659 7.639 19.0176 8.69783L20.3422 7.63227C19.4395 6.51001 18.1198 5.06591 16.5155 3.89605C14.9171 2.73044 12.966 1.78645 10.8187 1.78645V3.48645ZM2.61974 11.3031C1.93266 10.449 1.85 10.2914 1.85 10.0005H0.15C0.15 10.9999 0.705633 11.6358 1.29513 12.3686L2.61974 11.3031ZM1.29513 7.63227C0.705633 8.36508 0.15 9.00099 0.15 10.0005H1.85C1.85 9.70952 1.93266 9.55195 2.61974 8.69783L1.29513 7.63227ZM20.3422 12.3686C20.9317 11.6358 21.4874 10.9999 21.4874 10.0005L19.7874 10.0005C19.7874 10.2914 19.7047 10.449 19.0176 11.3031L20.3422 12.3686ZM19.0176 8.69783C19.7047 9.55195 19.7874 9.70952 19.7874 10.0005L21.4874 10.0005C21.4874 9.00099 20.9317 8.36509 20.3422 7.63227L19.0176 8.69783ZM10.8187 8.08895C11.89 8.08895 12.7487 8.95011 12.7487 10.0005H14.4487C14.4487 8.00054 12.8181 6.38895 10.8187 6.38895V8.08895ZM13.7462 15.7978C12.7999 16.2472 11.8173 16.5145 10.8187 16.5145V18.2145C12.1241 18.2145 13.3563 17.8649 14.4756 17.3333L13.7462 15.7978ZM2.61974 8.69783C3.08657 8.1175 3.66523 7.45454 4.33314 6.79959L3.14289 5.58579C2.41763 6.29697 1.79433 7.01171 1.29513 7.63227L2.61974 8.69783ZM6.0034 5.35819C7.47769 4.2583 9.1236 3.48645 10.8187 3.48645V1.78645C8.6116 1.78645 6.61139 2.78363 4.98685 3.99561L6.0034 5.35819ZM1.21718 1.60104L4.89408 5.27794L6.09616 4.07586L2.41926 0.398959L1.21718 1.60104ZM15.5412 15.9251L19.2172 19.601L20.4193 18.399L16.7433 14.723L15.5412 15.9251ZM19.0176 11.3031C18.1901 12.3318 17.0207 13.6082 15.634 14.6427L16.6505 16.0053C18.1934 14.8542 19.4645 13.4598 20.3422 12.3686L19.0176 11.3031ZM4.89408 5.27794L8.25845 8.64231L9.46054 7.44023L6.09616 4.07586L4.89408 5.27794ZM9.45652 8.6463C9.80588 8.30156 10.2859 8.08895 10.8187 8.08895V6.38895C9.82274 6.38895 8.91821 6.78917 8.26247 7.43624L9.45652 8.6463ZM8.25845 8.64231L12.1768 12.5607L13.3789 11.3586L9.46054 7.44023L8.25845 8.64231ZM12.1768 12.5607L15.5412 15.9251L16.7433 14.723L13.3789 11.3586L12.1768 12.5607ZM12.7487 10.0005C12.7487 10.5289 12.5332 11.0069 12.1808 11.3546L13.3749 12.5647C14.0364 11.9119 14.4487 11.0038 14.4487 10.0005H12.7487ZM10.4214 11.8716C9.66733 11.7157 9.07692 11.1226 8.92641 10.3793L7.26022 10.7167C7.54703 12.1331 8.66226 13.2439 10.0772 13.5364L10.4214 11.8716Z" fill="#4A525D"/>
</svg>
