<svg width="210" height="91" viewBox="0 0 210 91" fill="none" xmlns="http://www.w3.org/2000/svg">
<path d="M7.23038 7.166C8.77838 7.166 10.0624 7.55 11.0824 8.318C12.1024 9.074 12.7564 10.1 13.0444 11.396H10.3804C10.1284 10.82 9.72638 10.364 9.17438 10.028C8.63438 9.68 7.99238 9.506 7.24838 9.506C6.51638 9.506 5.86838 9.674 5.30438 10.01C4.74038 10.346 4.30238 10.826 3.99038 11.45C3.67838 12.074 3.52238 12.806 3.52238 13.646C3.52238 14.978 3.87638 16.016 4.58438 16.76C5.30438 17.504 6.28238 17.876 7.51838 17.876C8.43038 17.876 9.21038 17.606 9.85838 17.066C10.5184 16.526 10.9444 15.776 11.1364 14.816H6.83438V12.998H13.2604V15.446C13.0804 16.286 12.7264 17.06 12.1984 17.768C11.6824 18.476 10.9984 19.046 10.1464 19.478C9.30638 19.898 8.34038 20.108 7.24838 20.108C6.00038 20.108 4.89638 19.838 3.93638 19.298C2.98838 18.746 2.25038 17.984 1.72238 17.012C1.20638 16.028 0.948383 14.906 0.948383 13.646C0.948383 12.386 1.20638 11.27 1.72238 10.298C2.25038 9.314 2.98838 8.546 3.93638 7.994C4.88438 7.442 5.98238 7.166 7.23038 7.166ZM17.6988 18.056H21.9648V20H15.1608V7.292H17.6988V18.056ZM31.2152 17.444H26.1212L25.2212 20H22.5392L27.2192 7.436H30.1172L34.7792 20H32.0972L31.2152 17.444ZM30.5312 15.518L28.6592 10.154L26.7872 15.518H30.5312ZM44.8791 16.526C44.8791 17.174 44.7171 17.774 44.3931 18.326C44.0691 18.866 43.5891 19.304 42.9531 19.64C42.3171 19.964 41.5431 20.126 40.6311 20.126C39.7311 20.126 38.9271 19.976 38.2191 19.676C37.5111 19.364 36.9411 18.92 36.5091 18.344C36.0891 17.768 35.8491 17.096 35.7891 16.328H38.4891C38.5491 16.844 38.7531 17.276 39.1011 17.624C39.4611 17.96 39.9351 18.128 40.5231 18.128C41.0511 18.128 41.4531 17.99 41.7291 17.714C42.0171 17.426 42.1611 17.06 42.1611 16.616C42.1611 16.22 42.0471 15.896 41.8191 15.644C41.5911 15.38 41.3031 15.17 40.9551 15.014C40.6071 14.858 40.1271 14.678 39.5151 14.474C38.7231 14.21 38.0751 13.952 37.5711 13.7C37.0671 13.436 36.6351 13.058 36.2751 12.566C35.9271 12.074 35.7531 11.432 35.7531 10.64C35.7531 9.548 36.1431 8.69 36.9231 8.066C37.7151 7.43 38.7591 7.112 40.0551 7.112C41.3991 7.112 42.4671 7.436 43.2591 8.084C44.0631 8.732 44.5191 9.596 44.6271 10.676H41.8911C41.8191 10.22 41.6271 9.848 41.3151 9.56C41.0031 9.26 40.5771 9.11 40.0371 9.11C39.5691 9.11 39.1911 9.236 38.9031 9.488C38.6151 9.728 38.4711 10.082 38.4711 10.55C38.4711 10.922 38.5791 11.234 38.7951 11.486C39.0231 11.726 39.3051 11.924 39.6411 12.08C39.9891 12.236 40.4571 12.41 41.0451 12.602C41.8611 12.89 42.5211 13.16 43.0251 13.412C43.5411 13.664 43.9791 14.042 44.3391 14.546C44.6991 15.05 44.8791 15.71 44.8791 16.526ZM55.4787 16.526C55.4787 17.174 55.3167 17.774 54.9927 18.326C54.6687 18.866 54.1887 19.304 53.5527 19.64C52.9167 19.964 52.1427 20.126 51.2307 20.126C50.3307 20.126 49.5267 19.976 48.8187 19.676C48.1107 19.364 47.5407 18.92 47.1087 18.344C46.6887 17.768 46.4487 17.096 46.3887 16.328H49.0887C49.1487 16.844 49.3527 17.276 49.7007 17.624C50.0607 17.96 50.5347 18.128 51.1227 18.128C51.6507 18.128 52.0527 17.99 52.3287 17.714C52.6167 17.426 52.7607 17.06 52.7607 16.616C52.7607 16.22 52.6467 15.896 52.4187 15.644C52.1907 15.38 51.9027 15.17 51.5547 15.014C51.2067 14.858 50.7267 14.678 50.1147 14.474C49.3227 14.21 48.6747 13.952 48.1707 13.7C47.6667 13.436 47.2347 13.058 46.8747 12.566C46.5267 12.074 46.3527 11.432 46.3527 10.64C46.3527 9.548 46.7427 8.69 47.5227 8.066C48.3147 7.43 49.3587 7.112 50.6547 7.112C51.9987 7.112 53.0667 7.436 53.8587 8.084C54.6627 8.732 55.1187 9.596 55.2267 10.676H52.4907C52.4187 10.22 52.2267 9.848 51.9147 9.56C51.6027 9.26 51.1767 9.11 50.6367 9.11C50.1687 9.11 49.7907 9.236 49.5027 9.488C49.2147 9.728 49.0707 10.082 49.0707 10.55C49.0707 10.922 49.1787 11.234 49.3947 11.486C49.6227 11.726 49.9047 11.924 50.2407 12.08C50.5887 12.236 51.0567 12.41 51.6447 12.602C52.4607 12.89 53.1207 13.16 53.6247 13.412C54.1407 13.664 54.5787 14.042 54.9387 14.546C55.2987 15.05 55.4787 15.71 55.4787 16.526ZM68.5263 13.628C68.5263 14.888 68.2623 15.998 67.7343 16.958C67.2063 17.918 66.4383 18.668 65.4303 19.208C64.4343 19.736 63.2463 20 61.8663 20H57.3483V7.292H61.8663C63.2463 7.292 64.4343 7.556 65.4303 8.084C66.4383 8.6 67.2063 9.338 67.7343 10.298C68.2623 11.246 68.5263 12.356 68.5263 13.628ZM61.6503 17.732C63.0183 17.732 64.0743 17.372 64.8183 16.652C65.5743 15.932 65.9523 14.924 65.9523 13.628C65.9523 12.32 65.5743 11.306 64.8183 10.586C64.0743 9.866 63.0183 9.506 61.6503 9.506H59.8863V17.732H61.6503ZM76.3844 7.112C77.5724 7.112 78.6464 7.388 79.6064 7.94C80.5784 8.492 81.3404 9.266 81.8924 10.262C82.4564 11.246 82.7384 12.362 82.7384 13.61C82.7384 14.858 82.4564 15.98 81.8924 16.976C81.3404 17.972 80.5784 18.746 79.6064 19.298C78.6464 19.85 77.5724 20.126 76.3844 20.126C75.1964 20.126 74.1164 19.85 73.1444 19.298C72.1844 18.746 71.4224 17.972 70.8584 16.976C70.3064 15.98 70.0304 14.858 70.0304 13.61C70.0304 12.362 70.3064 11.246 70.8584 10.262C71.4224 9.266 72.1844 8.492 73.1444 7.94C74.1164 7.388 75.1964 7.112 76.3844 7.112ZM76.3844 9.452C75.6404 9.452 74.9864 9.62 74.4224 9.956C73.8584 10.292 73.4144 10.778 73.0904 11.414C72.7784 12.038 72.6224 12.77 72.6224 13.61C72.6224 14.45 72.7784 15.188 73.0904 15.824C73.4144 16.448 73.8584 16.928 74.4224 17.264C74.9864 17.6 75.6404 17.768 76.3844 17.768C77.1284 17.768 77.7824 17.6 78.3464 17.264C78.9104 16.928 79.3484 16.448 79.6604 15.824C79.9844 15.188 80.1464 14.45 80.1464 13.61C80.1464 12.77 79.9844 12.038 79.6604 11.414C79.3484 10.778 78.9104 10.292 78.3464 9.956C77.7824 9.62 77.1284 9.452 76.3844 9.452ZM90.6051 7.112C91.7931 7.112 92.8671 7.388 93.8271 7.94C94.7991 8.492 95.5611 9.266 96.1131 10.262C96.6771 11.246 96.9591 12.362 96.9591 13.61C96.9591 14.858 96.6771 15.98 96.1131 16.976C95.5611 17.972 94.7991 18.746 93.8271 19.298C92.8671 19.85 91.7931 20.126 90.6051 20.126C89.4171 20.126 88.3371 19.85 87.3651 19.298C86.4051 18.746 85.6431 17.972 85.0791 16.976C84.5271 15.98 84.2511 14.858 84.2511 13.61C84.2511 12.362 84.5271 11.246 85.0791 10.262C85.6431 9.266 86.4051 8.492 87.3651 7.94C88.3371 7.388 89.4171 7.112 90.6051 7.112ZM90.6051 9.452C89.8611 9.452 89.2071 9.62 88.6431 9.956C88.0791 10.292 87.6351 10.778 87.3111 11.414C86.9991 12.038 86.8431 12.77 86.8431 13.61C86.8431 14.45 86.9991 15.188 87.3111 15.824C87.6351 16.448 88.0791 16.928 88.6431 17.264C89.2071 17.6 89.8611 17.768 90.6051 17.768C91.3491 17.768 92.0031 17.6 92.5671 17.264C93.1311 16.928 93.5691 16.448 93.8811 15.824C94.2051 15.188 94.3671 14.45 94.3671 13.61C94.3671 12.77 94.2051 12.038 93.8811 11.414C93.5691 10.778 93.1311 10.292 92.5671 9.956C92.0031 9.62 91.3491 9.452 90.6051 9.452ZM105.492 20L102.522 15.05H101.406V20H98.8678V7.292H103.71C105.186 7.292 106.308 7.652 107.076 8.372C107.856 9.092 108.246 10.04 108.246 11.216C108.246 12.176 107.976 12.98 107.436 13.628C106.908 14.276 106.14 14.708 105.132 14.924L108.3 20H105.492ZM101.406 13.304H103.494C104.946 13.304 105.672 12.662 105.672 11.378C105.672 10.766 105.492 10.292 105.132 9.956C104.784 9.608 104.238 9.434 103.494 9.434H101.406V13.304Z" fill="#00A264"/>
<path d="M13.541 32.696H5.50097V36.968C5.86897 36.536 6.37297 36.192 7.01297 35.936C7.66897 35.664 8.38897 35.528 9.17297 35.528C10.341 35.528 11.309 35.784 12.077 36.296C12.861 36.792 13.437 37.464 13.805 38.312C14.189 39.144 14.381 40.072 14.381 41.096C14.381 42.904 13.869 44.352 12.845 45.44C11.837 46.528 10.389 47.072 8.50097 47.072C7.26897 47.072 6.19697 46.856 5.28497 46.424C4.37297 45.976 3.66097 45.36 3.14897 44.576C2.63697 43.776 2.35697 42.848 2.30897 41.792H5.59697C5.72497 42.512 6.02097 43.088 6.48497 43.52C6.94897 43.936 7.56497 44.144 8.33297 44.144C9.26097 44.144 9.94897 43.864 10.397 43.304C10.861 42.728 11.093 41.968 11.093 41.024C11.093 40.128 10.853 39.432 10.373 38.936C9.89297 38.44 9.21297 38.192 8.33297 38.192C7.69297 38.192 7.14897 38.336 6.70097 38.624C6.25297 38.896 5.92497 39.264 5.71697 39.728H2.42897V29.72H13.541V32.696ZM19.8245 43.472V47H16.1765V43.472H19.8245ZM28.151 47C23.831 47 21.671 44.128 21.671 38.384C21.671 32.656 23.831 29.792 28.151 29.792C30.439 29.792 32.087 30.56 33.095 32.096C34.103 33.632 34.607 35.728 34.607 38.384C34.607 41.056 34.103 43.16 33.095 44.696C32.087 46.232 30.439 47 28.151 47ZM30.623 42.416C31.055 41.472 31.271 40.128 31.271 38.384C31.271 36.656 31.055 35.328 30.623 34.4C30.207 33.456 29.383 32.984 28.151 32.984C26.903 32.984 26.063 33.456 25.631 34.4C25.215 35.328 25.007 36.656 25.007 38.384C25.007 40.128 25.215 41.472 25.631 42.416C26.063 43.344 26.903 43.808 28.151 43.808C29.383 43.808 30.207 43.344 30.623 42.416Z" fill="#00A264"/>
<path d="M48.5 32L50.1839 37.1824H55.6329L51.2245 40.3853L52.9084 45.5676L48.5 42.3647L44.0916 45.5676L45.7755 40.3853L41.3671 37.1824H46.8161L48.5 32Z" fill="#00A264"/>
<path d="M67.5 32L69.1839 37.1824H74.6329L70.2245 40.3853L71.9084 45.5676L67.5 42.3647L63.0916 45.5676L64.7755 40.3853L60.3671 37.1824H65.8161L67.5 32Z" fill="#00A264"/>
<path d="M86.5 32L88.1839 37.1824H93.6329L89.2245 40.3853L90.9084 45.5676L86.5 42.3647L82.0916 45.5676L83.7755 40.3853L79.3671 37.1824H84.8161L86.5 32Z" fill="#00A264"/>
<path d="M105.5 32L107.184 37.1824H112.633L108.225 40.3853L109.908 45.5676L105.5 42.3647L101.092 45.5676L102.775 40.3853L98.3671 37.1824H103.816L105.5 32Z" fill="#00A264"/>
<path d="M124.5 32L126.184 37.1824H131.633L127.225 40.3853L128.908 45.5676L124.5 42.3647L120.092 45.5676L121.775 40.3853L117.367 37.1824H122.816L124.5 32Z" fill="#00A264"/>
<path d="M0.156 59.812V58.528H2.868V67H1.428V59.812H0.156ZM5.02369 65.884C4.54369 65.116 4.30369 64.056 4.30369 62.704C4.30369 61.36 4.54369 60.308 5.02369 59.548C5.50369 58.788 6.30369 58.408 7.42369 58.408C8.54369 58.408 9.34369 58.792 9.82369 59.56C10.3037 60.32 10.5437 61.368 10.5437 62.704C10.5437 64.048 10.3037 65.104 9.82369 65.872C9.34369 66.64 8.54369 67.024 7.42369 67.024C6.30369 67.024 5.50369 66.644 5.02369 65.884ZM8.81569 64.948C9.05569 64.428 9.17569 63.68 9.17569 62.704C9.17569 61.744 9.05569 61.008 8.81569 60.496C8.57569 59.976 8.11169 59.716 7.42369 59.716C6.72769 59.716 6.25969 59.972 6.01969 60.484C5.77969 60.996 5.65969 61.736 5.65969 62.704C5.65969 63.68 5.77969 64.428 6.01969 64.948C6.25969 65.468 6.72769 65.728 7.42369 65.728C8.11169 65.728 8.57569 65.468 8.81569 64.948ZM12.5003 65.884C12.0203 65.116 11.7803 64.056 11.7803 62.704C11.7803 61.36 12.0203 60.308 12.5003 59.548C12.9803 58.788 13.7803 58.408 14.9003 58.408C16.0203 58.408 16.8203 58.792 17.3003 59.56C17.7803 60.32 18.0203 61.368 18.0203 62.704C18.0203 64.048 17.7803 65.104 17.3003 65.872C16.8203 66.64 16.0203 67.024 14.9003 67.024C13.7803 67.024 12.9803 66.644 12.5003 65.884ZM16.2923 64.948C16.5323 64.428 16.6523 63.68 16.6523 62.704C16.6523 61.744 16.5323 61.008 16.2923 60.496C16.0523 59.976 15.5883 59.716 14.9003 59.716C14.2043 59.716 13.7363 59.972 13.4963 60.484C13.2563 60.996 13.1363 61.736 13.1363 62.704C13.1363 63.68 13.2563 64.428 13.4963 64.948C13.7363 65.468 14.2043 65.728 14.9003 65.728C15.5883 65.728 16.0523 65.468 16.2923 64.948ZM20.8288 58.408C21.3648 58.408 21.8008 58.576 22.1368 58.912C22.4728 59.24 22.6408 59.688 22.6408 60.256C22.6408 60.824 22.4728 61.272 22.1368 61.6C21.8008 61.928 21.3648 62.092 20.8288 62.092C20.2928 62.092 19.8528 61.928 19.5088 61.6C19.1728 61.272 19.0048 60.824 19.0048 60.256C19.0048 59.688 19.1728 59.24 19.5088 58.912C19.8528 58.576 20.2928 58.408 20.8288 58.408ZM25.9048 58.516L21.1168 67H19.7728L24.5728 58.516H25.9048ZM19.9408 60.256C19.9408 60.56 20.0208 60.804 20.1808 60.988C20.3408 61.164 20.5528 61.252 20.8168 61.252C21.0808 61.252 21.2928 61.16 21.4528 60.976C21.6208 60.792 21.7048 60.552 21.7048 60.256C21.7048 59.952 21.6208 59.708 21.4528 59.524C21.2928 59.34 21.0808 59.248 20.8168 59.248C20.5528 59.248 20.3408 59.34 20.1808 59.524C20.0208 59.708 19.9408 59.952 19.9408 60.256ZM24.8608 63.424C25.3968 63.424 25.8328 63.588 26.1688 63.916C26.5128 64.244 26.6848 64.692 26.6848 65.26C26.6848 65.828 26.5128 66.28 26.1688 66.616C25.8328 66.944 25.3968 67.108 24.8608 67.108C24.3328 67.108 23.8968 66.944 23.5528 66.616C23.2168 66.28 23.0488 65.828 23.0488 65.26C23.0488 64.7 23.2168 64.256 23.5528 63.928C23.8968 63.592 24.3328 63.424 24.8608 63.424ZM23.9848 65.26C23.9848 65.564 24.0648 65.808 24.2248 65.992C24.3848 66.176 24.5968 66.268 24.8608 66.268C25.1248 66.268 25.3368 66.176 25.4968 65.992C25.6648 65.808 25.7488 65.564 25.7488 65.26C25.7488 64.964 25.6648 64.724 25.4968 64.54C25.3368 64.356 25.1248 64.264 24.8608 64.264C24.5968 64.264 24.3848 64.356 24.2248 64.54C24.0648 64.724 23.9848 64.964 23.9848 65.26ZM39.9514 60.388L38.1154 67H36.6034L34.9714 61.888L33.3154 67H31.8154L29.9794 60.388H31.3594L32.6194 65.74L34.2754 60.388H35.7154L37.3954 65.74L38.6554 60.388H39.9514ZM43.9067 60.304C44.5467 60.304 45.1227 60.44 45.6347 60.712C46.1467 60.984 46.5467 61.376 46.8347 61.888C47.1227 62.4 47.2667 63 47.2667 63.688C47.2667 64.384 47.1227 64.988 46.8347 65.5C46.5467 66.012 46.1467 66.404 45.6347 66.676C45.1227 66.948 44.5467 67.084 43.9067 67.084C43.2667 67.084 42.6907 66.948 42.1787 66.676C41.6747 66.404 41.2747 66.012 40.9787 65.5C40.6907 64.98 40.5467 64.376 40.5467 63.688C40.5467 63 40.6907 62.4 40.9787 61.888C41.2747 61.376 41.6747 60.984 42.1787 60.712C42.6907 60.44 43.2667 60.304 43.9067 60.304ZM43.9067 61.492C43.5547 61.492 43.2307 61.572 42.9347 61.732C42.6387 61.892 42.3987 62.14 42.2147 62.476C42.0387 62.804 41.9507 63.208 41.9507 63.688C41.9507 64.176 42.0387 64.584 42.2147 64.912C42.3987 65.24 42.6387 65.484 42.9347 65.644C43.2307 65.804 43.5547 65.884 43.9067 65.884C44.2587 65.884 44.5827 65.804 44.8787 65.644C45.1747 65.484 45.4107 65.24 45.5867 64.912C45.7707 64.584 45.8627 64.176 45.8627 63.688C45.8627 63.208 45.7707 62.804 45.5867 62.476C45.4107 62.14 45.1747 61.892 44.8787 61.732C44.5827 61.572 44.2587 61.492 43.9067 61.492ZM54.6779 60.388V67H53.2979V65.56C53.1299 66.048 52.8379 66.428 52.4219 66.7C52.0059 66.964 51.5219 67.096 50.9699 67.096C50.2019 67.096 49.5859 66.848 49.1219 66.352C48.6579 65.856 48.4259 65.148 48.4259 64.228V60.388H49.7939V64.084C49.7939 64.684 49.9459 65.148 50.2499 65.476C50.5539 65.796 50.9699 65.956 51.4979 65.956C52.0419 65.956 52.4779 65.78 52.8059 65.428C53.1339 65.076 53.2979 64.564 53.2979 63.892V60.388H54.6779ZM57.6843 58.12V67H56.3163V58.12H57.6843ZM61.9917 60.304C62.5917 60.304 63.1037 60.452 63.5277 60.748C63.9517 61.044 64.2477 61.436 64.4157 61.924V58.12H65.7957V67H64.4157V65.464C64.2477 65.952 63.9517 66.344 63.5277 66.64C63.1037 66.936 62.5917 67.084 61.9917 67.084C61.4157 67.084 60.8997 66.948 60.4437 66.676C59.9957 66.404 59.6437 66.012 59.3877 65.5C59.1317 64.988 59.0037 64.384 59.0037 63.688C59.0037 63 59.1317 62.4 59.3877 61.888C59.6437 61.376 59.9957 60.984 60.4437 60.712C60.8997 60.44 61.4157 60.304 61.9917 60.304ZM62.4117 61.504C61.8037 61.504 61.3157 61.7 60.9477 62.092C60.5877 62.476 60.4077 63.008 60.4077 63.688C60.4077 64.368 60.5877 64.904 60.9477 65.296C61.3157 65.68 61.8037 65.872 62.4117 65.872C62.7957 65.872 63.1397 65.784 63.4437 65.608C63.7477 65.424 63.9877 65.168 64.1637 64.84C64.3397 64.512 64.4277 64.128 64.4277 63.688C64.4277 63.256 64.3397 62.876 64.1637 62.548C63.9877 62.212 63.7477 61.956 63.4437 61.78C63.1397 61.596 62.7957 61.504 62.4117 61.504ZM71.6179 61.684C71.8419 61.252 72.1619 60.912 72.5779 60.664C72.9939 60.408 73.4739 60.28 74.0179 60.28V61.768H73.6099C73.0099 61.768 72.5259 61.916 72.1579 62.212C71.7979 62.5 71.6179 62.98 71.6179 63.652V67H70.2499V60.388H71.6179V61.684ZM81.1868 63.376C81.1868 63.6 81.1708 63.796 81.1388 63.964H76.0508C76.0748 64.644 76.2628 65.148 76.6148 65.476C76.9668 65.804 77.4028 65.968 77.9228 65.968C78.3788 65.968 78.7628 65.852 79.0748 65.62C79.3948 65.388 79.5908 65.08 79.6628 64.696H81.1268C81.0388 65.16 80.8548 65.572 80.5748 65.932C80.2948 66.292 79.9308 66.576 79.4828 66.784C79.0348 66.984 78.5348 67.084 77.9828 67.084C77.3428 67.084 76.7748 66.948 76.2788 66.676C75.7908 66.404 75.4068 66.012 75.1268 65.5C74.8468 64.988 74.7068 64.384 74.7068 63.688C74.7068 63 74.8468 62.4 75.1268 61.888C75.4068 61.376 75.7908 60.984 76.2788 60.712C76.7748 60.44 77.3428 60.304 77.9828 60.304C78.6308 60.304 79.1948 60.44 79.6748 60.712C80.1628 60.976 80.5348 61.344 80.7908 61.816C81.0548 62.28 81.1868 62.8 81.1868 63.376ZM79.8068 63.34C79.8228 62.908 79.7468 62.548 79.5788 62.26C79.4188 61.964 79.1948 61.748 78.9068 61.612C78.6268 61.468 78.3188 61.396 77.9828 61.396C77.4468 61.396 76.9988 61.56 76.6388 61.888C76.2788 62.216 76.0828 62.7 76.0508 63.34H79.8068ZM85.4477 60.304C86.3037 60.304 87.0117 60.532 87.5717 60.988C88.1317 61.436 88.4797 62.048 88.6157 62.824H87.1637C87.0837 62.408 86.8877 62.084 86.5757 61.852C86.2717 61.612 85.8877 61.492 85.4237 61.492C84.8957 61.492 84.4557 61.68 84.1037 62.056C83.7517 62.424 83.5757 62.968 83.5757 63.688C83.5757 64.408 83.7517 64.956 84.1037 65.332C84.4557 65.708 84.8957 65.896 85.4237 65.896C85.8877 65.896 86.2717 65.776 86.5757 65.536C86.8877 65.296 87.0837 64.968 87.1637 64.552H88.6157C88.4797 65.328 88.1317 65.944 87.5717 66.4C87.0117 66.856 86.3037 67.084 85.4477 67.084C84.8077 67.084 84.2397 66.948 83.7437 66.676C83.2557 66.404 82.8717 66.012 82.5917 65.5C82.3117 64.988 82.1717 64.384 82.1717 63.688C82.1717 63 82.3117 62.4 82.5917 61.888C82.8717 61.376 83.2557 60.984 83.7437 60.712C84.2397 60.44 84.8077 60.304 85.4477 60.304ZM92.9614 60.304C93.6014 60.304 94.1774 60.44 94.6894 60.712C95.2014 60.984 95.6014 61.376 95.8894 61.888C96.1774 62.4 96.3214 63 96.3214 63.688C96.3214 64.384 96.1774 64.988 95.8894 65.5C95.6014 66.012 95.2014 66.404 94.6894 66.676C94.1774 66.948 93.6014 67.084 92.9614 67.084C92.3214 67.084 91.7454 66.948 91.2334 66.676C90.7294 66.404 90.3294 66.012 90.0334 65.5C89.7454 64.98 89.6014 64.376 89.6014 63.688C89.6014 63 89.7454 62.4 90.0334 61.888C90.3294 61.376 90.7294 60.984 91.2334 60.712C91.7454 60.44 92.3214 60.304 92.9614 60.304ZM92.9614 61.492C92.6094 61.492 92.2854 61.572 91.9894 61.732C91.6934 61.892 91.4534 62.14 91.2694 62.476C91.0934 62.804 91.0054 63.208 91.0054 63.688C91.0054 64.176 91.0934 64.584 91.2694 64.912C91.4534 65.24 91.6934 65.484 91.9894 65.644C92.2854 65.804 92.6094 65.884 92.9614 65.884C93.3134 65.884 93.6374 65.804 93.9334 65.644C94.2294 65.484 94.4654 65.24 94.6414 64.912C94.8254 64.584 94.9174 64.176 94.9174 63.688C94.9174 63.208 94.8254 62.804 94.6414 62.476C94.4654 62.14 94.2294 61.892 93.9334 61.732C93.6374 61.572 93.3134 61.492 92.9614 61.492ZM105.905 60.28C106.689 60.28 107.313 60.528 107.777 61.024C108.249 61.52 108.485 62.228 108.485 63.148V67H107.117V63.292C107.117 62.716 106.973 62.272 106.685 61.96C106.397 61.64 106.001 61.48 105.497 61.48C104.961 61.48 104.533 61.652 104.213 61.996C103.901 62.332 103.745 62.828 103.745 63.484V67H102.377V63.292C102.377 62.716 102.233 62.272 101.945 61.96C101.657 61.64 101.261 61.48 100.757 61.48C100.221 61.48 99.7926 61.652 99.4726 61.996C99.1606 62.332 99.0046 62.828 99.0046 63.484V67H97.6366V60.388H99.0046V61.768C99.1726 61.288 99.4526 60.92 99.8446 60.664C100.237 60.408 100.697 60.28 101.225 60.28C101.777 60.28 102.253 60.416 102.653 60.688C103.061 60.96 103.357 61.352 103.541 61.864C103.733 61.368 104.041 60.98 104.465 60.7C104.889 60.42 105.369 60.28 105.905 60.28ZM118.35 60.28C119.134 60.28 119.758 60.528 120.222 61.024C120.694 61.52 120.93 62.228 120.93 63.148V67H119.562V63.292C119.562 62.716 119.418 62.272 119.13 61.96C118.842 61.64 118.446 61.48 117.942 61.48C117.406 61.48 116.978 61.652 116.658 61.996C116.346 62.332 116.19 62.828 116.19 63.484V67H114.822V63.292C114.822 62.716 114.678 62.272 114.39 61.96C114.102 61.64 113.706 61.48 113.202 61.48C112.666 61.48 112.238 61.652 111.918 61.996C111.606 62.332 111.45 62.828 111.45 63.484V67H110.082V60.388H111.45V61.768C111.618 61.288 111.898 60.92 112.29 60.664C112.682 60.408 113.142 60.28 113.67 60.28C114.222 60.28 114.698 60.416 115.098 60.688C115.506 60.96 115.802 61.352 115.986 61.864C116.178 61.368 116.486 60.98 116.91 60.7C117.334 60.42 117.814 60.28 118.35 60.28ZM128.671 63.376C128.671 63.6 128.655 63.796 128.623 63.964H123.535C123.559 64.644 123.747 65.148 124.099 65.476C124.451 65.804 124.887 65.968 125.407 65.968C125.863 65.968 126.247 65.852 126.559 65.62C126.879 65.388 127.075 65.08 127.147 64.696H128.611C128.523 65.16 128.339 65.572 128.059 65.932C127.779 66.292 127.415 66.576 126.967 66.784C126.519 66.984 126.019 67.084 125.467 67.084C124.827 67.084 124.259 66.948 123.763 66.676C123.275 66.404 122.891 66.012 122.611 65.5C122.331 64.988 122.191 64.384 122.191 63.688C122.191 63 122.331 62.4 122.611 61.888C122.891 61.376 123.275 60.984 123.763 60.712C124.259 60.44 124.827 60.304 125.467 60.304C126.115 60.304 126.679 60.44 127.159 60.712C127.647 60.976 128.019 61.344 128.275 61.816C128.539 62.28 128.671 62.8 128.671 63.376ZM127.291 63.34C127.307 62.908 127.231 62.548 127.063 62.26C126.903 61.964 126.679 61.748 126.391 61.612C126.111 61.468 125.803 61.396 125.467 61.396C124.931 61.396 124.483 61.56 124.123 61.888C123.763 62.216 123.567 62.7 123.535 63.34H127.291ZM133.688 60.28C134.456 60.28 135.072 60.528 135.536 61.024C136 61.52 136.232 62.228 136.232 63.148V67H134.864V63.292C134.864 62.7 134.712 62.244 134.408 61.924C134.104 61.596 133.688 61.432 133.16 61.432C132.616 61.432 132.18 61.608 131.852 61.96C131.524 62.304 131.36 62.812 131.36 63.484V67H129.992V60.388H131.36V61.84C131.536 61.344 131.832 60.96 132.248 60.688C132.664 60.416 133.144 60.28 133.688 60.28ZM140.484 60.304C141.084 60.304 141.596 60.452 142.02 60.748C142.444 61.044 142.74 61.436 142.908 61.924V58.12H144.288V67H142.908V65.464C142.74 65.952 142.444 66.344 142.02 66.64C141.596 66.936 141.084 67.084 140.484 67.084C139.908 67.084 139.392 66.948 138.936 66.676C138.488 66.404 138.136 66.012 137.88 65.5C137.624 64.988 137.496 64.384 137.496 63.688C137.496 63 137.624 62.4 137.88 61.888C138.136 61.376 138.488 60.984 138.936 60.712C139.392 60.44 139.908 60.304 140.484 60.304ZM140.904 61.504C140.296 61.504 139.808 61.7 139.44 62.092C139.08 62.476 138.9 63.008 138.9 63.688C138.9 64.368 139.08 64.904 139.44 65.296C139.808 65.68 140.296 65.872 140.904 65.872C141.288 65.872 141.632 65.784 141.936 65.608C142.24 65.424 142.48 65.168 142.656 64.84C142.832 64.512 142.92 64.128 142.92 63.688C142.92 63.256 142.832 62.876 142.656 62.548C142.48 62.212 142.24 61.956 141.936 61.78C141.632 61.596 141.288 61.504 140.904 61.504ZM152.066 65.812V67H151.226C150.522 67 149.986 66.832 149.618 66.496C149.258 66.152 149.078 65.584 149.078 64.792V61.552H148.13V60.388H149.078V58.744H150.458V60.388H152.054V61.552H150.458V64.816C150.458 65.192 150.526 65.452 150.662 65.596C150.806 65.74 151.054 65.812 151.406 65.812H152.066ZM156.372 60.304C157.012 60.304 157.588 60.44 158.1 60.712C158.612 60.984 159.012 61.376 159.3 61.888C159.588 62.4 159.732 63 159.732 63.688C159.732 64.384 159.588 64.988 159.3 65.5C159.012 66.012 158.612 66.404 158.1 66.676C157.588 66.948 157.012 67.084 156.372 67.084C155.732 67.084 155.156 66.948 154.644 66.676C154.14 66.404 153.74 66.012 153.444 65.5C153.156 64.98 153.012 64.376 153.012 63.688C153.012 63 153.156 62.4 153.444 61.888C153.74 61.376 154.14 60.984 154.644 60.712C155.156 60.44 155.732 60.304 156.372 60.304ZM156.372 61.492C156.02 61.492 155.696 61.572 155.4 61.732C155.104 61.892 154.864 62.14 154.68 62.476C154.504 62.804 154.416 63.208 154.416 63.688C154.416 64.176 154.504 64.584 154.68 64.912C154.864 65.24 155.104 65.484 155.4 65.644C155.696 65.804 156.02 65.884 156.372 65.884C156.724 65.884 157.048 65.804 157.344 65.644C157.64 65.484 157.876 65.24 158.052 64.912C158.236 64.584 158.328 64.176 158.328 63.688C158.328 63.208 158.236 62.804 158.052 62.476C157.876 62.14 157.64 61.892 157.344 61.732C157.048 61.572 156.724 61.492 156.372 61.492ZM166.511 60.304C167.111 60.304 167.623 60.452 168.047 60.748C168.471 61.044 168.771 61.436 168.947 61.924V60.388H170.315V67H168.947V65.464C168.771 65.952 168.471 66.344 168.047 66.64C167.623 66.936 167.111 67.084 166.511 67.084C165.935 67.084 165.419 66.948 164.963 66.676C164.515 66.404 164.163 66.012 163.907 65.5C163.651 64.988 163.523 64.384 163.523 63.688C163.523 63 163.651 62.4 163.907 61.888C164.163 61.376 164.515 60.984 164.963 60.712C165.419 60.44 165.935 60.304 166.511 60.304ZM166.931 61.504C166.323 61.504 165.835 61.7 165.467 62.092C165.107 62.476 164.927 63.008 164.927 63.688C164.927 64.368 165.107 64.904 165.467 65.296C165.835 65.68 166.323 65.872 166.931 65.872C167.315 65.872 167.659 65.784 167.963 65.608C168.267 65.424 168.507 65.168 168.683 64.84C168.859 64.512 168.947 64.128 168.947 63.688C168.947 63.256 168.859 62.876 168.683 62.548C168.507 62.212 168.267 61.956 167.963 61.78C167.659 61.596 167.315 61.504 166.931 61.504ZM177.853 59.02C177.317 58.996 176.941 59.084 176.725 59.284C176.509 59.476 176.401 59.808 176.401 60.28V60.388H177.853V61.564H176.401V67H175.021V61.564H174.121V60.388H175.021V60.172C175.021 59.364 175.257 58.76 175.729 58.36C176.201 57.952 176.909 57.772 177.853 57.82V59.02ZM180.321 61.684C180.545 61.252 180.865 60.912 181.281 60.664C181.697 60.408 182.177 60.28 182.721 60.28V61.768H182.313C181.713 61.768 181.229 61.916 180.861 62.212C180.501 62.5 180.321 62.98 180.321 63.652V67H178.953V60.388H180.321V61.684ZM183.554 58.468C183.554 58.236 183.634 58.044 183.794 57.892C183.954 57.74 184.166 57.664 184.43 57.664C184.694 57.664 184.906 57.74 185.066 57.892C185.234 58.044 185.318 58.236 185.318 58.468C185.318 58.7 185.234 58.888 185.066 59.032C184.906 59.176 184.694 59.248 184.43 59.248C184.166 59.248 183.954 59.176 183.794 59.032C183.634 58.888 183.554 58.7 183.554 58.468ZM185.114 60.388V67H183.746V60.388H185.114ZM192.913 63.376C192.913 63.6 192.897 63.796 192.865 63.964H187.777C187.801 64.644 187.989 65.148 188.341 65.476C188.693 65.804 189.129 65.968 189.649 65.968C190.105 65.968 190.489 65.852 190.801 65.62C191.121 65.388 191.317 65.08 191.389 64.696H192.853C192.765 65.16 192.581 65.572 192.301 65.932C192.021 66.292 191.657 66.576 191.209 66.784C190.761 66.984 190.261 67.084 189.709 67.084C189.069 67.084 188.501 66.948 188.005 66.676C187.517 66.404 187.133 66.012 186.853 65.5C186.573 64.988 186.433 64.384 186.433 63.688C186.433 63 186.573 62.4 186.853 61.888C187.133 61.376 187.517 60.984 188.005 60.712C188.501 60.44 189.069 60.304 189.709 60.304C190.357 60.304 190.921 60.44 191.401 60.712C191.889 60.976 192.261 61.344 192.517 61.816C192.781 62.28 192.913 62.8 192.913 63.376ZM191.533 63.34C191.549 62.908 191.473 62.548 191.305 62.26C191.145 61.964 190.921 61.748 190.633 61.612C190.353 61.468 190.045 61.396 189.709 61.396C189.173 61.396 188.725 61.56 188.365 61.888C188.005 62.216 187.809 62.7 187.777 63.34H191.533ZM197.93 60.28C198.698 60.28 199.314 60.528 199.778 61.024C200.242 61.52 200.474 62.228 200.474 63.148V67H199.106V63.292C199.106 62.7 198.954 62.244 198.65 61.924C198.346 61.596 197.93 61.432 197.402 61.432C196.858 61.432 196.422 61.608 196.094 61.96C195.766 62.304 195.602 62.812 195.602 63.484V67H194.234V60.388H195.602V61.84C195.778 61.344 196.074 60.96 196.49 60.688C196.906 60.416 197.386 60.28 197.93 60.28ZM204.726 60.304C205.326 60.304 205.838 60.452 206.262 60.748C206.686 61.044 206.982 61.436 207.15 61.924V58.12H208.53V67H207.15V65.464C206.982 65.952 206.686 66.344 206.262 66.64C205.838 66.936 205.326 67.084 204.726 67.084C204.15 67.084 203.634 66.948 203.178 66.676C202.73 66.404 202.378 66.012 202.122 65.5C201.866 64.988 201.738 64.384 201.738 63.688C201.738 63 201.866 62.4 202.122 61.888C202.378 61.376 202.73 60.984 203.178 60.712C203.634 60.44 204.15 60.304 204.726 60.304ZM205.146 61.504C204.538 61.504 204.05 61.7 203.682 62.092C203.322 62.476 203.142 63.008 203.142 63.688C203.142 64.368 203.322 64.904 203.682 65.296C204.05 65.68 204.538 65.872 205.146 65.872C205.53 65.872 205.874 65.784 206.178 65.608C206.482 65.424 206.722 65.168 206.898 64.84C207.074 64.512 207.162 64.128 207.162 63.688C207.162 63.256 207.074 62.876 206.898 62.548C206.722 62.212 206.482 61.956 206.178 61.78C205.874 61.596 205.53 61.504 205.146 61.504Z" fill="black"/>
<path d="M4.272 74.792V75.92H3.06V87.092H4.272V88.232H1.776V74.792H4.272ZM8.02022 81.428C7.18822 81.012 6.77222 80.356 6.77222 79.46C6.77222 79.028 6.88022 78.632 7.09622 78.272C7.31222 77.912 7.63622 77.628 8.06822 77.42C8.50022 77.204 9.02822 77.096 9.65222 77.096C10.2682 77.096 10.7922 77.204 11.2242 77.42C11.6642 77.628 11.9922 77.912 12.2082 78.272C12.4242 78.632 12.5322 79.028 12.5322 79.46C12.5322 79.908 12.4162 80.304 12.1842 80.648C11.9602 80.984 11.6602 81.244 11.2842 81.428C11.7402 81.596 12.1002 81.872 12.3642 82.256C12.6282 82.632 12.7602 83.076 12.7602 83.588C12.7602 84.108 12.6282 84.568 12.3642 84.968C12.1002 85.368 11.7322 85.676 11.2602 85.892C10.7882 86.108 10.2522 86.216 9.65222 86.216C9.05222 86.216 8.51622 86.108 8.04422 85.892C7.58022 85.676 7.21622 85.368 6.95222 84.968C6.68822 84.568 6.55622 84.108 6.55622 83.588C6.55622 83.068 6.68822 82.62 6.95222 82.244C7.21622 81.868 7.57222 81.596 8.02022 81.428ZM11.2242 79.628C11.2242 79.18 11.0842 78.836 10.8042 78.596C10.5242 78.356 10.1402 78.236 9.65222 78.236C9.17222 78.236 8.79222 78.356 8.51222 78.596C8.23222 78.836 8.09222 79.184 8.09222 79.64C8.09222 80.04 8.23622 80.368 8.52422 80.624C8.82022 80.872 9.19622 80.996 9.65222 80.996C10.1082 80.996 10.4842 80.868 10.7802 80.612C11.0762 80.356 11.2242 80.028 11.2242 79.628ZM9.65222 82.028C9.12422 82.028 8.69222 82.16 8.35622 82.424C8.02822 82.68 7.86422 83.052 7.86422 83.54C7.86422 83.996 8.02422 84.368 8.34422 84.656C8.66422 84.936 9.10022 85.076 9.65222 85.076C10.1962 85.076 10.6242 84.932 10.9362 84.644C11.2562 84.356 11.4162 83.988 11.4162 83.54C11.4162 83.06 11.2522 82.688 10.9242 82.424C10.6042 82.16 10.1802 82.028 9.65222 82.028ZM19.0898 80.504V84.164C19.0898 84.412 19.1458 84.592 19.2578 84.704C19.3778 84.808 19.5778 84.86 19.8578 84.86H20.6978V86H19.6178C19.0018 86 18.5298 85.856 18.2018 85.568C17.8738 85.28 17.7098 84.812 17.7098 84.164V80.504H16.9298V79.388H17.7098V77.744H19.0898V79.388H20.6978V80.504H19.0898ZM24.8266 86.108C24.2026 86.108 23.6386 85.968 23.1346 85.688C22.6306 85.4 22.2346 85 21.9466 84.488C21.6586 83.968 21.5146 83.368 21.5146 82.688C21.5146 82.016 21.6626 81.42 21.9586 80.9C22.2546 80.38 22.6586 79.98 23.1706 79.7C23.6826 79.42 24.2546 79.28 24.8866 79.28C25.5186 79.28 26.0906 79.42 26.6026 79.7C27.1146 79.98 27.5186 80.38 27.8146 80.9C28.1106 81.42 28.2586 82.016 28.2586 82.688C28.2586 83.36 28.1066 83.956 27.8026 84.476C27.4986 84.996 27.0826 85.4 26.5546 85.688C26.0346 85.968 25.4586 86.108 24.8266 86.108ZM24.8266 84.92C25.1786 84.92 25.5066 84.836 25.8106 84.668C26.1226 84.5 26.3746 84.248 26.5666 83.912C26.7586 83.576 26.8546 83.168 26.8546 82.688C26.8546 82.208 26.7626 81.804 26.5786 81.476C26.3946 81.14 26.1506 80.888 25.8466 80.72C25.5426 80.552 25.2146 80.468 24.8626 80.468C24.5106 80.468 24.1826 80.552 23.8786 80.72C23.5826 80.888 23.3466 81.14 23.1706 81.476C22.9946 81.804 22.9066 82.208 22.9066 82.688C22.9066 83.4 23.0866 83.952 23.4466 84.344C23.8146 84.728 24.2746 84.92 24.8266 84.92ZM31.2069 80.504V84.164C31.2069 84.412 31.2629 84.592 31.3749 84.704C31.4949 84.808 31.6949 84.86 31.9749 84.86H32.8149V86H31.7349C31.1189 86 30.6469 85.856 30.3189 85.568C29.9909 85.28 29.8269 84.812 29.8269 84.164V80.504H29.0469V79.388H29.8269V77.744H31.2069V79.388H32.8149V80.504H31.2069ZM33.6198 82.664C33.6198 82 33.7558 81.412 34.0278 80.9C34.3078 80.388 34.6838 79.992 35.1558 79.712C35.6358 79.424 36.1638 79.28 36.7398 79.28C37.2598 79.28 37.7118 79.384 38.0958 79.592C38.4878 79.792 38.7998 80.044 39.0318 80.348V79.388H40.4118V86H39.0318V85.016C38.7998 85.328 38.4838 85.588 38.0838 85.796C37.6838 86.004 37.2278 86.108 36.7158 86.108C36.1478 86.108 35.6278 85.964 35.1558 85.676C34.6838 85.38 34.3078 84.972 34.0278 84.452C33.7558 83.924 33.6198 83.328 33.6198 82.664ZM39.0318 82.688C39.0318 82.232 38.9358 81.836 38.7438 81.5C38.5598 81.164 38.3158 80.908 38.0118 80.732C37.7078 80.556 37.3798 80.468 37.0278 80.468C36.6758 80.468 36.3478 80.556 36.0438 80.732C35.7398 80.9 35.4918 81.152 35.2998 81.488C35.1158 81.816 35.0238 82.208 35.0238 82.664C35.0238 83.12 35.1158 83.52 35.2998 83.864C35.4918 84.208 35.7398 84.472 36.0438 84.656C36.3558 84.832 36.6838 84.92 37.0278 84.92C37.3798 84.92 37.7078 84.832 38.0118 84.656C38.3158 84.48 38.5598 84.224 38.7438 83.888C38.9358 83.544 39.0318 83.144 39.0318 82.688ZM43.5766 77.12V86H42.2086V77.12H43.5766ZM49.8578 80.348C50.0578 80.012 50.3218 79.752 50.6498 79.568C50.9858 79.376 51.3818 79.28 51.8378 79.28V80.696H51.4898C50.9538 80.696 50.5458 80.832 50.2658 81.104C49.9938 81.376 49.8578 81.848 49.8578 82.52V86H48.4898V79.388H49.8578V80.348ZM59.1553 82.532C59.1553 82.78 59.1393 83.004 59.1073 83.204H54.0553C54.0953 83.732 54.2913 84.156 54.6433 84.476C54.9953 84.796 55.4273 84.956 55.9393 84.956C56.6753 84.956 57.1953 84.648 57.4993 84.032H58.9753C58.7753 84.64 58.4113 85.14 57.8833 85.532C57.3633 85.916 56.7153 86.108 55.9393 86.108C55.3073 86.108 54.7393 85.968 54.2353 85.688C53.7393 85.4 53.3473 85 53.0593 84.488C52.7793 83.968 52.6393 83.368 52.6393 82.688C52.6393 82.008 52.7753 81.412 53.0473 80.9C53.3273 80.38 53.7153 79.98 54.2113 79.7C54.7153 79.42 55.2913 79.28 55.9393 79.28C56.5633 79.28 57.1193 79.416 57.6073 79.688C58.0953 79.96 58.4753 80.344 58.7473 80.84C59.0193 81.328 59.1553 81.892 59.1553 82.532ZM57.7273 82.1C57.7193 81.596 57.5393 81.192 57.1873 80.888C56.8353 80.584 56.3993 80.432 55.8793 80.432C55.4073 80.432 55.0033 80.584 54.6673 80.888C54.3313 81.184 54.1313 81.588 54.0673 82.1H57.7273ZM63.0576 84.776L64.9296 79.388H66.3816L63.8616 86H62.2296L59.7216 79.388H61.1856L63.0576 84.776ZM68.1116 78.512C67.8636 78.512 67.6556 78.428 67.4876 78.26C67.3196 78.092 67.2356 77.884 67.2356 77.636C67.2356 77.388 67.3196 77.18 67.4876 77.012C67.6556 76.844 67.8636 76.76 68.1116 76.76C68.3516 76.76 68.5556 76.844 68.7236 77.012C68.8916 77.18 68.9756 77.388 68.9756 77.636C68.9756 77.884 68.8916 78.092 68.7236 78.26C68.5556 78.428 68.3516 78.512 68.1116 78.512ZM68.7836 79.388V86H67.4156V79.388H68.7836ZM76.6397 82.532C76.6397 82.78 76.6237 83.004 76.5917 83.204H71.5397C71.5797 83.732 71.7757 84.156 72.1277 84.476C72.4797 84.796 72.9117 84.956 73.4237 84.956C74.1597 84.956 74.6797 84.648 74.9837 84.032H76.4597C76.2597 84.64 75.8957 85.14 75.3677 85.532C74.8477 85.916 74.1997 86.108 73.4237 86.108C72.7917 86.108 72.2237 85.968 71.7197 85.688C71.2237 85.4 70.8317 85 70.5437 84.488C70.2637 83.968 70.1237 83.368 70.1237 82.688C70.1237 82.008 70.2597 81.412 70.5317 80.9C70.8117 80.38 71.1997 79.98 71.6957 79.7C72.1997 79.42 72.7757 79.28 73.4237 79.28C74.0477 79.28 74.6037 79.416 75.0917 79.688C75.5797 79.96 75.9597 80.344 76.2317 80.84C76.5037 81.328 76.6397 81.892 76.6397 82.532ZM75.2117 82.1C75.2037 81.596 75.0237 81.192 74.6717 80.888C74.3197 80.584 73.8837 80.432 73.3637 80.432C72.8917 80.432 72.4877 80.584 72.1517 80.888C71.8157 81.184 71.6157 81.588 71.5517 82.1H75.2117ZM86.8659 79.388L84.8139 86H83.3739L82.0419 81.116L80.7099 86H79.2699L77.2059 79.388H78.5979L79.9779 84.704L81.3819 79.388H82.8099L84.1539 84.68L85.5219 79.388H86.8659ZM90.2883 86.108C89.7683 86.108 89.3003 86.016 88.8843 85.832C88.4763 85.64 88.1523 85.384 87.9123 85.064C87.6723 84.736 87.5443 84.372 87.5283 83.972H88.9443C88.9683 84.252 89.1003 84.488 89.3403 84.68C89.5883 84.864 89.8963 84.956 90.2643 84.956C90.6483 84.956 90.9443 84.884 91.1523 84.74C91.3683 84.588 91.4763 84.396 91.4763 84.164C91.4763 83.916 91.3563 83.732 91.1163 83.612C90.8843 83.492 90.5123 83.36 90.0003 83.216C89.5043 83.08 89.1003 82.948 88.7883 82.82C88.4763 82.692 88.2043 82.496 87.9723 82.232C87.7483 81.968 87.6363 81.62 87.6363 81.188C87.6363 80.836 87.7403 80.516 87.9483 80.228C88.1563 79.932 88.4523 79.7 88.8363 79.532C89.2283 79.364 89.6763 79.28 90.1803 79.28C90.9323 79.28 91.5363 79.472 91.9923 79.856C92.4563 80.232 92.7043 80.748 92.7363 81.404H91.3683C91.3443 81.108 91.2243 80.872 91.0083 80.696C90.7923 80.52 90.5003 80.432 90.1323 80.432C89.7723 80.432 89.4963 80.5 89.3043 80.636C89.1123 80.772 89.0163 80.952 89.0163 81.176C89.0163 81.352 89.0803 81.5 89.2083 81.62C89.3363 81.74 89.4923 81.836 89.6763 81.908C89.8603 81.972 90.1323 82.056 90.4923 82.16C90.9723 82.288 91.3643 82.42 91.6683 82.556C91.9803 82.684 92.2483 82.876 92.4723 83.132C92.6963 83.388 92.8123 83.728 92.8203 84.152C92.8203 84.528 92.7163 84.864 92.5083 85.16C92.3003 85.456 92.0043 85.688 91.6203 85.856C91.2443 86.024 90.8003 86.108 90.2883 86.108ZM97.4304 88.232H94.9344V87.092H96.1464V75.92H94.9344V74.792H97.4304V88.232Z" fill="#6A696A"/>
</svg>
