<svg width="40" height="40" viewBox="0 0 40 40" fill="none" xmlns="http://www.w3.org/2000/svg">
<path fill-rule="evenodd" clip-rule="evenodd" d="M11.9079 26.1748L13.3983 19.2128C13.6153 18.2453 14.1041 17.3599 14.8071 16.6607L28.425 3.16526C29.8059 1.7585 31.6809 0.945525 33.6517 0.89901C35.138 0.877714 36.5713 1.45102 37.6329 2.49151C39.9526 5.23238 39.6531 9.32542 36.9592 11.6994L23.3412 25.3173C22.642 26.0204 21.7566 26.5091 20.7892 26.7261L13.8271 28.2165H13.4392C12.9302 28.236 12.4441 28.0044 12.1385 27.597C11.8329 27.1895 11.7467 26.658 11.9079 26.1748ZM16.9712 18.8453C16.6852 19.1225 16.4865 19.4773 16.3996 19.8661L15.3992 24.6232L20.1562 23.6023C20.545 23.5155 20.8999 23.3167 21.1771 23.0307L34.795 9.41276C36.2868 8.21843 36.5828 6.0654 35.4687 4.51276C34.9809 4.04666 34.326 3.79648 33.6517 3.81859C32.4891 3.86528 31.3905 4.36331 30.5892 5.20693L16.9712 18.8453Z" fill="#0038FF"/>
<path d="M36.6529 17.314C35.8118 17.325 35.1327 18.0042 35.1217 18.8453V30.4623C35.149 32.1044 34.5158 33.6887 33.3642 34.8595C32.2125 36.0303 30.639 36.6897 28.9967 36.6894H9.53958C6.14504 36.6229 3.42503 33.8575 3.41458 30.4623V11.0869C3.47031 7.68773 6.24202 4.96147 9.64167 4.96193H21.2587C22.1044 4.96193 22.79 4.27636 22.79 3.43068C22.79 2.58499 22.1044 1.89943 21.2587 1.89943H9.53958C4.44869 1.89912 0.305944 5.99634 0.25 11.0869V30.4623C0.25 35.5928 4.40909 39.7519 9.53958 39.7519H28.915C34.0375 39.7407 38.1842 35.5849 38.1842 30.4623V18.8453C38.1732 18.0042 37.494 17.325 36.6529 17.314Z" fill="#0038FF"/>
</svg>
