<svg width="51" height="50" viewBox="0 0 51 50" fill="none" xmlns="http://www.w3.org/2000/svg">
<path d="M45.6676 35.3296L39.1467 20.1005C36.9384 14.9338 32.8759 14.7255 30.1467 19.6422L26.2092 26.7463C24.2092 30.3505 20.4801 30.663 17.8967 27.4338L17.4384 26.8505C14.7509 23.4755 10.9592 23.8922 9.02174 27.7463L5.4384 34.9338C2.91757 39.9338 6.5634 45.8297 12.1467 45.8297H38.7301C44.1467 45.8297 47.7926 40.3088 45.6676 35.3296Z" stroke="#292D32" stroke-width="1.5" stroke-linecap="round" stroke-linejoin="round"/>
<path d="M15.0195 16.6641C18.4713 16.6641 21.2695 13.8658 21.2695 10.4141C21.2695 6.96228 18.4713 4.16406 15.0195 4.16406C11.5678 4.16406 8.76953 6.96228 8.76953 10.4141C8.76953 13.8658 11.5678 16.6641 15.0195 16.6641Z" stroke="#292D32" stroke-width="1.5" stroke-linecap="round" stroke-linejoin="round"/>
</svg>
