<svg width="40" height="40" viewBox="0 0 40 40" fill="none" xmlns="http://www.w3.org/2000/svg">
<rect x="0.5" y="0.5" width="39" height="39" rx="19.5" fill="white"/>
<rect x="0.5" y="0.5" width="39" height="39" rx="19.5" stroke="#E1E5F2"/>
<path d="M20.25 13.491C22.4367 13.491 22.7349 13.491 23.6295 13.491C24.4247 13.491 24.8223 13.6898 25.1205 13.7892C25.5181 13.988 25.8163 14.0874 26.1145 14.3855C26.4127 14.6837 26.6114 14.9819 26.7108 15.3795C26.8102 15.6777 26.9096 16.0753 27.009 16.8705C27.009 17.7651 27.009 17.9639 27.009 20.25C27.009 22.5361 27.009 22.7349 27.009 23.6295C27.009 24.4247 26.8102 24.8223 26.7108 25.1205C26.512 25.5181 26.4127 25.8163 26.1145 26.1145C25.8163 26.4127 25.5181 26.6114 25.1205 26.7108C24.8223 26.8102 24.4247 26.9096 23.6295 27.009C22.7349 27.009 22.5361 27.009 20.25 27.009C17.9639 27.009 17.7651 27.009 16.8705 27.009C16.0753 27.009 15.6777 26.8102 15.3795 26.7108C14.9819 26.512 14.6837 26.4127 14.3855 26.1145C14.0874 25.8163 13.8886 25.5181 13.7892 25.1205C13.6898 24.8223 13.5904 24.4247 13.491 23.6295C13.491 22.7349 13.491 22.5361 13.491 20.25C13.491 17.9639 13.491 17.7651 13.491 16.8705C13.491 16.0753 13.6898 15.6777 13.7892 15.3795C13.988 14.9819 14.0874 14.6837 14.3855 14.3855C14.6837 14.0874 14.9819 13.8886 15.3795 13.7892C15.6777 13.6898 16.0753 13.5904 16.8705 13.491C17.7651 13.491 18.0633 13.491 20.25 13.491ZM20.25 12C17.9639 12 17.7651 12 16.8705 12C15.9759 12 15.3795 12.1988 14.8825 12.3976C14.3855 12.5964 13.8886 12.8946 13.3916 13.3916C12.8946 13.8886 12.6958 14.2861 12.3976 14.8825C12.1988 15.3795 12.0994 15.9759 12 16.8705C12 17.7651 12 18.0633 12 20.25C12 22.5361 12 22.7349 12 23.6295C12 24.5241 12.1988 25.1205 12.3976 25.6175C12.5964 26.1145 12.8946 26.6114 13.3916 27.1084C13.8886 27.6054 14.2861 27.8042 14.8825 28.1024C15.3795 28.3012 15.9759 28.4006 16.8705 28.5C17.7651 28.5 18.0633 28.5 20.25 28.5C22.4367 28.5 22.7349 28.5 23.6295 28.5C24.5241 28.5 25.1205 28.3012 25.6175 28.1024C26.1145 27.9036 26.6114 27.6054 27.1084 27.1084C27.6054 26.6114 27.8042 26.2139 28.1024 25.6175C28.3012 25.1205 28.4006 24.5241 28.5 23.6295C28.5 22.7349 28.5 22.4367 28.5 20.25C28.5 18.0633 28.5 17.7651 28.5 16.8705C28.5 15.9759 28.3012 15.3795 28.1024 14.8825C27.9036 14.3855 27.6054 13.8886 27.1084 13.3916C26.6114 12.8946 26.2139 12.6958 25.6175 12.3976C25.1205 12.1988 24.5241 12.0994 23.6295 12C22.7349 12 22.5361 12 20.25 12Z" fill="#0038FF"/>
<path d="M20.25 15.9759C17.8645 15.9759 15.9759 17.8645 15.9759 20.25C15.9759 22.6355 17.8645 24.5241 20.25 24.5241C22.6355 24.5241 24.5241 22.6355 24.5241 20.25C24.5241 17.8645 22.6355 15.9759 20.25 15.9759ZM20.25 23.0331C18.759 23.0331 17.4669 21.8404 17.4669 20.25C17.4669 18.759 18.6596 17.4669 20.25 17.4669C21.741 17.4669 23.0331 18.6596 23.0331 20.25C23.0331 21.741 21.741 23.0331 20.25 23.0331Z" fill="#0038FF"/>
<path d="M24.6235 16.8705C25.1725 16.8705 25.6175 16.4255 25.6175 15.8765C25.6175 15.3275 25.1725 14.8825 24.6235 14.8825C24.0745 14.8825 23.6295 15.3275 23.6295 15.8765C23.6295 16.4255 24.0745 16.8705 24.6235 16.8705Z" fill="#0038FF"/>
</svg>
