<svg width="40" height="40" viewBox="0 0 40 40" fill="none" xmlns="http://www.w3.org/2000/svg">
<path d="M30.1073 25.1179L30.9696 20.2222C31.185 18.9994 30.2273 17.881 28.9647 17.881H22.6323C22.0047 17.881 21.5267 17.3279 21.6283 16.7192L22.4383 11.8657C22.5699 11.0772 22.5323 10.2704 22.3279 9.49703C22.1587 8.85637 21.6552 8.34194 20.9931 8.13311L20.8159 8.07722C20.4158 7.95102 19.9791 7.98038 19.6018 8.15887C19.1865 8.35533 18.8828 8.71368 18.7702 9.13987L18.1887 11.3405C18.0037 12.0407 17.7343 12.7165 17.3868 13.3551C16.8792 14.2882 16.0943 15.035 15.2784 15.7252L13.5199 17.213C13.0241 17.6325 12.7638 18.2607 12.8202 18.9013L13.8128 30.1725C13.9039 31.2063 14.7842 32 15.84 32H21.5216C25.7765 32 29.4078 29.0893 30.1073 25.1179Z" stroke="#9F9F9F" stroke-width="2"/>
<path d="M9 17.881L10.1875 31.3649C10.2176 31.7064 9.94364 32 9.59486 32C9.26633 32 9 31.7382 9 31.4153V17.881Z" stroke="#9F9F9F" stroke-width="2"/>
</svg>
