<svg width="132" height="78" viewBox="0 0 132 78" fill="none" xmlns="http://www.w3.org/2000/svg">
<path d="M2.84 40V12H7.08V36.64H19.8V40H2.84ZM26.6034 16.4C25.8034 16.4 25.1368 16.16 24.6034 15.68C24.0968 15.1733 23.8434 14.5467 23.8434 13.8C23.8434 13.0533 24.0968 12.44 24.6034 11.96C25.1368 11.4533 25.8034 11.2 26.6034 11.2C27.4034 11.2 28.0568 11.4533 28.5634 11.96C29.0968 12.44 29.3634 13.0533 29.3634 13.8C29.3634 14.5467 29.0968 15.1733 28.5634 15.68C28.0568 16.16 27.4034 16.4 26.6034 16.4ZM24.4834 40V20.16H28.7234V40H24.4834ZM34.3206 40V20.16H38.0806L38.4006 23.64C39.014 22.4133 39.9073 21.4533 41.0806 20.76C42.2806 20.04 43.654 19.68 45.2006 19.68C47.6006 19.68 49.4806 20.4267 50.8406 21.92C52.2273 23.4133 52.9206 25.64 52.9206 28.6V40H48.7206V29.04C48.7206 25.2 47.1473 23.28 44.0006 23.28C42.4273 23.28 41.1206 23.84 40.0806 24.96C39.0673 26.08 38.5606 27.68 38.5606 29.76V40H34.3206ZM57.9144 40V11.2H62.1544V28.36L69.7544 20.16H74.8344L66.3944 29.16L76.0744 40H70.7144L62.1544 29.84V40H57.9144ZM87.1163 40.48C85.1696 40.48 83.4363 40.0533 81.9163 39.2C80.4229 38.32 79.2496 37.1067 78.3963 35.56C77.5429 34.0133 77.1163 32.2133 77.1163 30.16C77.1163 28.08 77.5296 26.2533 78.3563 24.68C79.2096 23.1067 80.3829 21.88 81.8763 21C83.3963 20.12 85.1563 19.68 87.1563 19.68C89.1029 19.68 90.7963 20.12 92.2363 21C93.6763 21.8533 94.7963 23 95.5963 24.44C96.3963 25.88 96.7963 27.4667 96.7963 29.2C96.7963 29.4667 96.7829 29.76 96.7563 30.08C96.7563 30.3733 96.7429 30.7067 96.7163 31.08H81.2763C81.4096 33 82.0363 34.4667 83.1563 35.48C84.3029 36.4667 85.6229 36.96 87.1163 36.96C88.3163 36.96 89.3163 36.6933 90.1163 36.16C90.9429 35.6 91.5563 34.8533 91.9563 33.92H96.1963C95.6629 35.7867 94.5963 37.3467 92.9963 38.6C91.4229 39.8533 89.4629 40.48 87.1163 40.48ZM87.1163 23.16C85.7029 23.16 84.4496 23.5867 83.3563 24.44C82.2629 25.2667 81.5963 26.52 81.3563 28.2H92.5563C92.4763 26.6533 91.9296 25.4267 90.9163 24.52C89.9029 23.6133 88.6363 23.16 87.1163 23.16ZM110.236 40.48C108.316 40.48 106.622 40.0267 105.156 39.12C103.689 38.2133 102.542 36.9733 101.716 35.4C100.889 33.8267 100.476 32.04 100.476 30.04C100.476 28.04 100.889 26.2667 101.716 24.72C102.542 23.1467 103.689 21.92 105.156 21.04C106.649 20.1333 108.356 19.68 110.276 19.68C111.849 19.68 113.222 19.9867 114.396 20.6C115.596 21.2133 116.529 22.08 117.196 23.2V11.2H121.436V40H117.636L117.196 36.92C116.556 37.8533 115.676 38.68 114.556 39.4C113.436 40.12 111.996 40.48 110.236 40.48ZM110.996 36.8C112.809 36.8 114.289 36.1733 115.436 34.92C116.609 33.6667 117.196 32.0533 117.196 30.08C117.196 28.08 116.609 26.4667 115.436 25.24C114.289 23.9867 112.809 23.36 110.996 23.36C109.182 23.36 107.689 23.9867 106.516 25.24C105.342 26.4667 104.756 28.08 104.756 30.08C104.756 31.3867 105.022 32.5467 105.556 33.56C106.089 34.5733 106.822 35.3733 107.756 35.96C108.716 36.52 109.796 36.8 110.996 36.8Z" fill="#0077B5"/>
<path d="M1.42 72V58H3.54V70.32H9.9V72H1.42ZM16.312 72.24C15.3387 72.24 14.472 72.0267 13.712 71.6C12.9654 71.16 12.3787 70.5533 11.952 69.78C11.5254 69.0067 11.312 68.1067 11.312 67.08C11.312 66.04 11.5187 65.1267 11.932 64.34C12.3587 63.5533 12.9454 62.94 13.692 62.5C14.452 62.06 15.332 61.84 16.332 61.84C17.3054 61.84 18.152 62.06 18.872 62.5C19.592 62.9267 20.152 63.5 20.552 64.22C20.952 64.94 21.152 65.7333 21.152 66.6C21.152 66.7333 21.1454 66.88 21.132 67.04C21.132 67.1867 21.1254 67.3533 21.112 67.54H13.392C13.4587 68.5 13.772 69.2333 14.332 69.74C14.9054 70.2333 15.5654 70.48 16.312 70.48C16.912 70.48 17.412 70.3467 17.812 70.08C18.2254 69.8 18.532 69.4267 18.732 68.96H20.852C20.5854 69.8933 20.052 70.6733 19.252 71.3C18.4654 71.9267 17.4854 72.24 16.312 72.24ZM16.312 63.58C15.6054 63.58 14.9787 63.7933 14.432 64.22C13.8854 64.6333 13.552 65.26 13.432 66.1H19.032C18.992 65.3267 18.7187 64.7133 18.212 64.26C17.7054 63.8067 17.072 63.58 16.312 63.58ZM26.7117 72.24C25.8717 72.24 25.1784 72.1 24.6317 71.82C24.0851 71.54 23.6784 71.1733 23.4117 70.72C23.1451 70.2533 23.0117 69.7467 23.0117 69.2C23.0117 68.24 23.3851 67.48 24.1317 66.92C24.8784 66.36 25.9451 66.08 27.3317 66.08H29.9317V65.9C29.9317 65.1267 29.7184 64.5467 29.2917 64.16C28.8784 63.7733 28.3384 63.58 27.6717 63.58C27.0851 63.58 26.5717 63.7267 26.1317 64.02C25.7051 64.3 25.4451 64.72 25.3517 65.28H23.2317C23.2984 64.56 23.5384 63.9467 23.9517 63.44C24.3784 62.92 24.9117 62.5267 25.5517 62.26C26.2051 61.98 26.9184 61.84 27.6917 61.84C29.0784 61.84 30.1517 62.2067 30.9117 62.94C31.6717 63.66 32.0517 64.6467 32.0517 65.9V72H30.2117L30.0317 70.3C29.7517 70.8467 29.3451 71.3067 28.8117 71.68C28.2784 72.0533 27.5784 72.24 26.7117 72.24ZM27.1317 70.52C27.7051 70.52 28.1851 70.3867 28.5717 70.12C28.9717 69.84 29.2784 69.4733 29.4917 69.02C29.7184 68.5667 29.8584 68.0667 29.9117 67.52H27.5517C26.7117 67.52 26.1117 67.6667 25.7517 67.96C25.4051 68.2533 25.2317 68.62 25.2317 69.06C25.2317 69.5133 25.3984 69.8733 25.7317 70.14C26.0784 70.3933 26.5451 70.52 27.1317 70.52ZM34.5236 72V62.08H36.4236L36.6036 63.96C36.9503 63.3067 37.4303 62.7933 38.0436 62.42C38.6703 62.0333 39.4236 61.84 40.3036 61.84V64.06H39.7236C39.1369 64.06 38.6103 64.16 38.1436 64.36C37.6903 64.5467 37.3236 64.8733 37.0436 65.34C36.7769 65.7933 36.6436 66.4267 36.6436 67.24V72H34.5236ZM42.1213 72V62.08H44.0013L44.1613 63.82C44.4679 63.2067 44.9146 62.7267 45.5013 62.38C46.1013 62.02 46.7879 61.84 47.5613 61.84C48.7613 61.84 49.7013 62.2133 50.3813 62.96C51.0746 63.7067 51.4213 64.82 51.4213 66.3V72H49.3213V66.52C49.3213 64.6 48.5346 63.64 46.9613 63.64C46.1746 63.64 45.5213 63.92 45.0013 64.48C44.4946 65.04 44.2413 65.84 44.2413 66.88V72H42.1213ZM55.1181 60.2C54.7181 60.2 54.3848 60.08 54.1181 59.84C53.8648 59.5867 53.7381 59.2733 53.7381 58.9C53.7381 58.5267 53.8648 58.22 54.1181 57.98C54.3848 57.7267 54.7181 57.6 55.1181 57.6C55.5181 57.6 55.8448 57.7267 56.0981 57.98C56.3648 58.22 56.4981 58.5267 56.4981 58.9C56.4981 59.2733 56.3648 59.5867 56.0981 59.84C55.8448 60.08 55.5181 60.2 55.1181 60.2ZM54.0581 72V62.08H56.1781V72H54.0581ZM58.9767 72V62.08H60.8567L61.0167 63.82C61.3234 63.2067 61.7701 62.7267 62.3567 62.38C62.9567 62.02 63.6434 61.84 64.4167 61.84C65.6167 61.84 66.5567 62.2133 67.2367 62.96C67.9301 63.7067 68.2767 64.82 68.2767 66.3V72H66.1767V66.52C66.1767 64.6 65.3901 63.64 63.8167 63.64C63.0301 63.64 62.3767 63.92 61.8567 64.48C61.3501 65.04 61.0967 65.84 61.0967 66.88V72H58.9767ZM74.8336 68.96C74.3136 68.96 73.8336 68.9 73.3936 68.78L72.5336 69.62C72.6803 69.7133 72.8603 69.7933 73.0736 69.86C73.2869 69.9267 73.5869 69.9867 73.9736 70.04C74.3603 70.0933 74.8869 70.1467 75.5536 70.2C76.8736 70.32 77.8269 70.64 78.4136 71.16C79.0003 71.6667 79.2936 72.3467 79.2936 73.2C79.2936 73.7867 79.1336 74.34 78.8136 74.86C78.5069 75.3933 78.0203 75.82 77.3536 76.14C76.7003 76.4733 75.8603 76.64 74.8336 76.64C73.4469 76.64 72.3203 76.3733 71.4536 75.84C70.6003 75.32 70.1736 74.5267 70.1736 73.46C70.1736 73.0467 70.2803 72.6333 70.4936 72.22C70.7203 71.82 71.0736 71.44 71.5536 71.08C71.2736 70.96 71.0269 70.8333 70.8136 70.7C70.6136 70.5533 70.4336 70.4067 70.2736 70.26V69.78L71.9936 68.02C71.2203 67.3533 70.8336 66.48 70.8336 65.4C70.8336 64.7467 70.9869 64.1533 71.2936 63.62C71.6136 63.0733 72.0736 62.64 72.6736 62.32C73.2736 62 73.9936 61.84 74.8336 61.84C75.3936 61.84 75.9136 61.92 76.3936 62.08H80.0936V63.48L78.3336 63.58C78.6536 64.1267 78.8136 64.7333 78.8136 65.4C78.8136 66.0667 78.6536 66.6667 78.3336 67.2C78.0269 67.7333 77.5736 68.16 76.9736 68.48C76.3869 68.8 75.6736 68.96 74.8336 68.96ZM74.8336 67.3C75.4469 67.3 75.9403 67.14 76.3136 66.82C76.7003 66.4867 76.8936 66.02 76.8936 65.42C76.8936 64.8067 76.7003 64.34 76.3136 64.02C75.9403 63.7 75.4469 63.54 74.8336 63.54C74.2069 63.54 73.7003 63.7 73.3136 64.02C72.9403 64.34 72.7536 64.8067 72.7536 65.42C72.7536 66.02 72.9403 66.4867 73.3136 66.82C73.7003 67.14 74.2069 67.3 74.8336 67.3ZM72.1736 73.26C72.1736 73.8333 72.4269 74.26 72.9336 74.54C73.4403 74.8333 74.0736 74.98 74.8336 74.98C75.5669 74.98 76.1603 74.82 76.6136 74.5C77.0669 74.1933 77.2936 73.78 77.2936 73.26C77.2936 72.8733 77.1403 72.54 76.8336 72.26C76.5269 71.9933 75.9469 71.8267 75.0936 71.76C74.4536 71.72 73.8869 71.66 73.3936 71.58C72.9269 71.8333 72.6069 72.1067 72.4336 72.4C72.2603 72.6933 72.1736 72.98 72.1736 73.26Z" fill="#0077B5"/>
</svg>
