<svg width="40" height="40" viewBox="0 0 40 40" fill="none" xmlns="http://www.w3.org/2000/svg">
<rect x="0.5" y="0.5" width="39" height="39" rx="19.5" fill="white"/>
<rect x="0.5" y="0.5" width="39" height="39" rx="19.5" stroke="#E1E5F2"/>
<path d="M26.375 21.2141V25.7646H23.7113V21.4916C23.7113 20.4372 23.3229 19.7158 22.3795 19.7158C21.6581 19.7158 21.2141 20.2152 21.0476 20.6592C20.9922 20.8257 20.9367 21.0476 20.9367 21.3251V25.7646H18.273C18.273 25.7646 18.3285 18.5505 18.273 17.829H20.9367V18.9389C21.2696 18.384 21.9355 17.6071 23.3229 17.6071C25.0432 17.6071 26.375 18.7724 26.375 21.2141ZM15.4983 14C14.6104 14 14 14.6104 14 15.3873C14 16.1642 14.5549 16.7747 15.4428 16.7747C16.3862 16.7747 16.9411 16.1642 16.9411 15.3873C16.9966 14.5549 16.4417 14 15.4983 14ZM14.1665 25.7646H16.8302V17.829H14.1665V25.7646Z" fill="#0038FF"/>
</svg>
