<svg width="54" height="54" viewBox="0 0 54 54" fill="none" xmlns="http://www.w3.org/2000/svg">
<rect x="0.5" y="0.5" width="53" height="53" rx="26.5" fill="white"/>
<rect x="0.5" y="0.5" width="53" height="53" rx="26.5" stroke="#0038FF"/>
<path d="M37 29.2642V37H32.6951V29.7359C32.6951 27.9434 32.0673 26.717 30.5426 26.717C29.3767 26.717 28.6592 27.566 28.3901 28.3208C28.3004 28.6038 28.2108 28.9811 28.2108 29.4528V37H23.9058C23.9058 37 23.9955 24.7359 23.9058 23.5094H28.2108V25.3962C28.7489 24.4528 29.8251 23.1321 32.0673 23.1321C34.8475 23.1321 37 25.1132 37 29.2642ZM19.4215 17C17.9865 17 17 18.0377 17 19.3585C17 20.6792 17.8969 21.717 19.3318 21.717C20.8565 21.717 21.7534 20.6792 21.7534 19.3585C21.8431 17.9434 20.9462 17 19.4215 17ZM17.2691 37H21.574V23.5094H17.2691V37Z" fill="#0038FF"/>
</svg>
