<svg width="23" height="23" viewBox="0 0 23 23" fill="none" xmlns="http://www.w3.org/2000/svg">
<path d="M11.5 2.8776C9.72084 2.8776 8.01455 3.58437 6.75649 4.84243C5.49844 6.10049 4.79167 7.80678 4.79167 9.58594C4.79167 12.3287 6.49942 14.9746 8.37392 17.0245C9.3329 18.0682 10.3787 19.0287 11.5 19.8957C12.6213 19.0294 13.6671 18.0695 14.6261 17.0264C16.5006 14.9746 18.2083 12.3296 18.2083 9.58594C18.2083 7.80678 17.5016 6.10049 16.2435 4.84243C14.9855 3.58437 13.2792 2.8776 11.5 2.8776ZM11.5 22.2494L10.9566 21.8756L10.9537 21.8737L10.948 21.8689L10.9288 21.8555L10.857 21.8047C10.4601 21.5162 10.0722 21.2158 9.69354 20.9039C8.72311 20.1067 7.80951 19.2427 6.95942 18.3183C5.00058 16.1754 2.875 13.0714 2.875 9.58594C2.875 7.29845 3.7837 5.10464 5.4012 3.48714C7.0187 1.86964 9.21251 0.960937 11.5 0.960938C13.7875 0.960938 15.9813 1.86964 17.5988 3.48714C19.2163 5.10464 20.125 7.29845 20.125 9.58594C20.125 13.0714 17.9994 16.1764 16.0406 18.3183C14.9307 19.5255 13.7131 20.6289 12.4028 21.6149C12.2936 21.6965 12.1833 21.7767 12.0721 21.8555L12.052 21.8689L12.0462 21.8737L12.0443 21.8746L11.5 22.2494ZM11.5 7.66927C10.9917 7.66927 10.5042 7.87121 10.1447 8.23065C9.78527 8.5901 9.58333 9.07761 9.58333 9.58594C9.58333 10.0943 9.78527 10.5818 10.1447 10.9412C10.5042 11.3007 10.9917 11.5026 11.5 11.5026C12.0083 11.5026 12.4958 11.3007 12.8553 10.9412C13.2147 10.5818 13.4167 10.0943 13.4167 9.58594C13.4167 9.07761 13.2147 8.5901 12.8553 8.23065C12.4958 7.87121 12.0083 7.66927 11.5 7.66927ZM7.66667 9.58594C7.66667 8.56927 8.07053 7.59425 8.78942 6.87536C9.50831 6.15647 10.4833 5.7526 11.5 5.7526C12.5167 5.7526 13.4917 6.15647 14.2106 6.87536C14.9295 7.59425 15.3333 8.56927 15.3333 9.58594C15.3333 10.6026 14.9295 11.5776 14.2106 12.2965C13.4917 13.0154 12.5167 13.4193 11.5 13.4193C10.4833 13.4193 9.50831 13.0154 8.78942 12.2965C8.07053 11.5776 7.66667 10.6026 7.66667 9.58594Z" fill="#002ED3"/>
</svg>
