<svg width="169" height="30" viewBox="0 0 169 30" fill="none" xmlns="http://www.w3.org/2000/svg">
<path d="M5.72749 20.4405C0.976253 15.7703 0.976253 8.17288 5.72749 3.50266C10.4787 -1.16755 18.208 -1.16755 22.9592 3.50266L17.2216 9.14246C15.6328 7.58078 13.0539 7.58078 11.4651 9.14246C9.87635 10.7041 9.87635 13.2391 11.4651 14.8007L5.72749 20.4405Z" fill="url(#paint0_linear_10714_7941)"/>
<path d="M8.61397 29.6027C5.49291 29.6027 2.37562 28.437 0 26.1019L5.73762 20.4621C7.32639 22.0238 9.90909 22.0238 11.4941 20.4621C13.0829 18.9005 13.0829 16.3655 11.4941 14.8039L17.2317 9.16406C21.983 13.8343 21.983 21.4317 17.2317 26.1019C14.8561 28.437 11.735 29.6027 8.61774 29.6027H8.61397Z" fill="url(#paint1_linear_10714_7941)"/>
<path d="M37.2775 24.0357C35.9862 24.0357 34.868 23.8211 33.9268 23.3844C32.9856 22.9514 32.2853 22.3149 31.826 21.4823C31.3667 20.6496 31.2311 19.6356 31.4156 18.4514H35.06C34.9734 19.0028 35.0299 19.4876 35.2256 19.9058C35.4214 20.324 35.7414 20.6422 36.1819 20.8717C36.6224 21.0974 37.1419 21.2084 37.7368 21.2084C38.3316 21.2084 38.855 21.1048 39.303 20.8939C39.7548 20.6866 40.1011 20.4017 40.3496 20.0427C40.5981 19.6838 40.7336 19.2508 40.7712 18.7512C40.7863 18.4181 40.7223 18.1147 40.5793 17.8482C40.4362 17.5818 40.2366 17.3486 39.9806 17.1488C39.7246 16.949 39.4197 16.7713 39.062 16.6122C38.7044 16.4531 38.3241 16.3051 37.9137 16.1607C37.5071 16.0164 37.0817 15.8721 36.6412 15.7241C35.4327 15.3207 34.5254 14.7656 33.9155 14.0477C33.3056 13.3297 33.0232 12.4527 33.0759 11.4165C33.1249 10.2989 33.4562 9.32564 34.0698 8.5004C34.6797 7.67145 35.5005 7.03494 36.5283 6.58346C37.5561 6.13198 38.7232 5.90625 40.0296 5.90625C41.2193 5.90625 42.2358 6.10608 43.0754 6.50575C43.9149 6.90542 44.5436 7.48642 44.9615 8.24505C45.3794 9.00368 45.5187 9.91774 45.3832 10.9872H41.6861C41.7727 10.5358 41.7238 10.1472 41.5468 9.81043C41.3699 9.47737 41.1026 9.21832 40.7449 9.03329C40.3872 8.84826 39.9543 8.75945 39.446 8.75945C38.934 8.74464 38.4823 8.82605 38.0832 9.01109C37.6841 9.19612 37.3754 9.44406 37.1532 9.76232C36.9311 10.0806 36.8031 10.4543 36.7692 10.891C36.7542 11.2093 36.8031 11.4794 36.9236 11.7052C37.0403 11.9309 37.2135 12.1307 37.4356 12.3047C37.6539 12.4786 37.9213 12.6377 38.2375 12.7783C38.55 12.9227 38.8963 13.0559 39.2691 13.1928C39.6418 13.326 40.0334 13.4667 40.44 13.6184C41.016 13.8182 41.5543 14.0551 42.0588 14.3326C42.5633 14.6102 43.0038 14.9321 43.3841 15.3096C43.7643 15.687 44.0542 16.1274 44.25 16.6381C44.4458 17.1488 44.5248 17.7298 44.4909 18.3774C44.4382 19.495 44.1069 20.4794 43.497 21.3194C42.8871 22.1632 42.0438 22.8293 40.9746 23.3104C39.9053 23.7952 38.6743 24.0357 37.2775 24.0357Z" fill="#012456"/>
<path d="M46.3281 23.7286L49.5659 5.69531H53.007L49.7692 23.7286H46.3281ZM55.0927 23.7286L50.5561 16.7158L56.4932 11.1057H60.6986L53.3345 17.6669L53.5868 15.7648L59.1926 23.7323H55.0889L55.0927 23.7286Z" fill="#012456"/>
<path d="M61.2188 23.7331L63.489 11.1102H66.93L64.6598 23.7331H61.2188ZM65.857 9.45599C65.2283 9.45599 64.7201 9.26726 64.3285 8.88979C63.937 8.51603 63.7412 8.06085 63.7412 7.52425C63.7412 6.95435 63.937 6.48808 64.3285 6.12172C64.7201 5.75165 65.2283 5.57031 65.857 5.57031C66.4858 5.57031 67.0015 5.75535 67.3968 6.12172C67.7959 6.48808 67.9955 6.95435 67.9955 7.52425C67.9955 8.05715 67.7922 8.51233 67.3856 8.88979C66.979 9.26726 66.4707 9.45599 65.857 9.45599Z" fill="#012456"/>
<path d="M68.0391 23.7286L71.2768 5.69531H74.7179L71.4801 23.7286H68.0391Z" fill="#012456"/>
<path d="M74.7344 23.7286L77.9721 5.69531H81.4132L78.1755 23.7286H74.7344Z" fill="#012456"/>
<path d="M81.5194 23.729L84.6555 6.19531H91.9932C93.1113 6.19531 94.0488 6.35814 94.7942 6.6838C95.5435 7.00946 96.0969 7.47203 96.4621 8.07524C96.8272 8.67474 96.9854 9.37787 96.9327 10.1772C96.8988 11.0617 96.6541 11.8462 96.1948 12.5308C95.7354 13.2154 95.1368 13.7631 94.3989 14.1702C93.6572 14.581 92.8328 14.8178 91.9141 14.8844L92.3471 14.6106C93.0925 14.6439 93.7363 14.8289 94.2709 15.162C94.8055 15.495 95.2159 15.9354 95.4945 16.4905C95.7731 17.0419 95.8973 17.6673 95.8635 18.3667C95.8145 19.4362 95.487 20.3762 94.8808 21.1866C94.2785 21.9971 93.469 22.6225 92.46 23.0629C91.4473 23.5069 90.3141 23.729 89.0566 23.729H81.5156H81.5194ZM85.4461 21.0238H89.0114C89.7079 21.0238 90.3028 20.9054 90.796 20.6611C91.2892 20.4169 91.6807 20.0801 91.9668 19.6472C92.253 19.2142 92.4073 18.7109 92.4261 18.1447C92.46 17.4934 92.2529 16.9753 91.8012 16.5904C91.3494 16.2056 90.7019 16.0131 89.851 16.0131H86.3346L85.4423 21.0238H85.4461ZM86.7977 13.5337H90.0844C91.052 13.5337 91.8275 13.2894 92.4035 12.8047C92.9833 12.3199 93.2883 11.6612 93.3222 10.8285C93.3372 10.4103 93.2619 10.0551 93.0925 9.76274C92.9231 9.47039 92.6558 9.24835 92.2906 9.08922C91.9254 8.93009 91.4623 8.85978 90.9014 8.87458H87.6147L86.8014 13.5337H86.7977Z" fill="#012456"/>
<path d="M102.38 24.032C101.277 24.032 100.396 23.8026 99.7447 23.3437C99.0896 22.8848 98.6529 22.2335 98.4308 21.3898C98.2086 20.5497 98.2011 19.558 98.4044 18.4219L99.7033 11.1094H103.144L101.872 18.0962C101.717 19.0843 101.797 19.8429 102.101 20.3758C102.41 20.9124 103.02 21.1788 103.935 21.1788C104.511 21.1788 105.046 21.053 105.539 20.8014C106.032 20.5497 106.457 20.1834 106.815 19.7023C107.173 19.2175 107.417 18.6254 107.553 17.9223L108.75 11.1094H112.191L109.951 23.7323H106.921L106.969 21.7302C106.476 22.4297 105.836 22.9922 105.046 23.4066C104.255 23.8248 103.366 24.032 102.38 24.032Z" fill="#012456"/>
<path d="M113.32 23.7331L115.591 11.1102H119.032L116.761 23.7331H113.32ZM117.959 9.45599C117.33 9.45599 116.822 9.26726 116.43 8.88979C116.039 8.51603 115.843 8.06085 115.843 7.52425C115.843 6.95435 116.039 6.48808 116.43 6.12172C116.822 5.75165 117.33 5.57031 117.959 5.57031C118.587 5.57031 119.103 5.75535 119.498 6.12172C119.898 6.48808 120.097 6.95435 120.097 7.52425C120.097 8.05715 119.894 8.51233 119.487 8.88979C119.081 9.26726 118.572 9.45599 117.959 9.45599Z" fill="#012456"/>
<path d="M120.117 23.7286L123.355 5.69531H126.796L123.558 23.7286H120.117Z" fill="#012456"/>
<path d="M132.406 24.0283C131.351 24.0283 130.448 23.773 129.691 23.266C128.934 22.7553 128.366 22.0633 127.982 21.1862C127.602 20.3092 127.436 19.3174 127.485 18.2183C127.534 17.1488 127.752 16.1681 128.132 15.2763C128.513 14.3844 129.032 13.6036 129.687 12.9338C130.342 12.264 131.092 11.7422 131.943 11.3684C132.793 10.9946 133.708 10.8022 134.695 10.8022C135.681 10.8022 136.513 10.9835 137.142 11.3425C137.771 11.7015 138.237 12.1641 138.542 12.734L139.792 5.69531H143.233L140.022 23.7286H136.965L136.89 22.0004C136.585 22.3519 136.219 22.685 135.794 23.0032C135.369 23.3178 134.875 23.5694 134.314 23.7545C133.753 23.9395 133.117 24.0283 132.402 24.0283H132.406ZM133.836 21.0715C134.567 21.0715 135.229 20.8828 135.824 20.509C136.419 20.1352 136.897 19.6283 137.262 18.9954C137.627 18.3589 137.827 17.6484 137.861 16.8639C137.895 16.2311 137.801 15.6834 137.582 15.2245C137.36 14.7656 137.036 14.4066 136.6 14.1476C136.167 13.8885 135.643 13.759 135.033 13.759C134.303 13.759 133.644 13.9404 133.061 14.2993C132.473 14.6583 132.003 15.1468 131.645 15.7648C131.287 16.3828 131.092 17.0859 131.058 17.8704C131.024 18.4884 131.114 19.0398 131.325 19.5246C131.54 20.0094 131.856 20.3906 132.281 20.6644C132.707 20.9383 133.226 21.0752 133.836 21.0752V21.0715Z" fill="#012456"/>
<path d="M149.399 24.0271C148.224 24.0271 147.219 23.794 146.38 23.3277C145.536 22.8614 144.9 22.199 144.467 21.3515C144.034 20.5004 143.85 19.5049 143.921 18.3688C143.955 17.3178 144.173 16.3372 144.569 15.4268C144.968 14.5164 145.518 13.7134 146.214 13.0214C146.911 12.3294 147.728 11.7854 148.657 11.3931C149.591 11.0008 150.63 10.8047 151.767 10.8047C152.904 10.8047 153.906 11.0378 154.723 11.5041C155.536 11.9741 156.149 12.6069 156.556 13.4062C156.963 14.2093 157.14 15.1344 157.091 16.1854C157.091 16.537 157.053 16.8923 156.974 17.2512C156.899 17.6102 156.82 17.9395 156.733 18.2393H146.334L146.692 16.1854H153.676C153.744 15.6192 153.683 15.1381 153.499 14.7459C153.311 14.3536 153.028 14.0576 152.644 13.8577C152.264 13.6542 151.816 13.5543 151.308 13.5543C150.713 13.5543 150.148 13.6838 149.614 13.9428C149.079 14.2019 148.624 14.5979 148.251 15.1307C147.874 15.6636 147.615 16.3409 147.46 17.1624L147.332 17.8877C147.215 18.539 147.234 19.12 147.396 19.627C147.558 20.1377 147.852 20.5374 148.277 20.8297C148.703 21.1221 149.23 21.2664 149.858 21.2664C150.487 21.2664 151.056 21.1332 151.515 20.8631C151.974 20.5966 152.347 20.2524 152.633 19.8343H156.149C155.758 20.6225 155.227 21.3293 154.557 21.9658C153.887 22.5987 153.115 23.1019 152.238 23.4683C151.361 23.8347 150.416 24.0197 149.395 24.0197L149.399 24.0271Z" fill="#012456"/>
<path d="M158.523 23.7274L160.767 11.1044H163.851L163.775 13.384C164.182 12.8511 164.656 12.396 165.191 12.0185C165.726 11.6447 166.317 11.3487 166.96 11.1303C167.604 10.9157 168.286 10.8047 168.997 10.8047L168.387 14.3869H167.19C166.678 14.3869 166.2 14.4387 165.752 14.5497C165.3 14.6608 164.894 14.8421 164.528 15.1011C164.163 15.3602 163.854 15.7081 163.598 16.141C163.342 16.574 163.158 17.118 163.037 17.7693L161.968 23.7311H158.527L158.523 23.7274Z" fill="#012456"/>
<defs>
<linearGradient id="paint0_linear_10714_7941" x1="21.8561" y1="-3.88013" x2="-12.5622" y2="31.1353" gradientUnits="userSpaceOnUse">
<stop stop-color="#0038FF"/>
<stop offset="1" stop-color="#0088FF"/>
</linearGradient>
<linearGradient id="paint1_linear_10714_7941" x1="30.4915" y1="4.59376" x2="-3.92683" y2="39.6092" gradientUnits="userSpaceOnUse">
<stop stop-color="#0038FF"/>
<stop offset="1" stop-color="#0088FF"/>
</linearGradient>
</defs>
</svg>
