<svg width="24" height="24" viewBox="0 0 24 24" fill="none" xmlns="http://www.w3.org/2000/svg">
<path d="M16.6406 22H7.36058C6.34976 21.9633 5.40815 21.477 4.79293 20.6742C4.17771 19.8713 3.95315 18.8356 4.18058 17.85L4.42058 16.71C4.69662 15.1668 6.0232 14.0327 7.59058 14H16.4106C17.978 14.0327 19.3045 15.1668 19.5806 16.71L19.8206 17.85C20.048 18.8356 19.8235 19.8713 19.2082 20.6742C18.593 21.477 17.6514 21.9633 16.6406 22Z" fill="#878A99"/>
<path d="M12.5006 12H11.5006C9.29144 12 7.50058 10.2092 7.50058 8.00001V5.36001C7.49792 4.46807 7.85106 3.61189 8.48176 2.98119C9.11246 2.35049 9.96864 1.99735 10.8606 2.00001H13.1406C14.0325 1.99735 14.8887 2.35049 15.5194 2.98119C16.1501 3.61189 16.5033 4.46807 16.5006 5.36001V8.00001C16.5006 9.06088 16.0792 10.0783 15.329 10.8284C14.5789 11.5786 13.5614 12 12.5006 12Z" fill="#878A99"/>
</svg>
