<svg width="27" height="25" viewBox="0 0 27 25" fill="none" xmlns="http://www.w3.org/2000/svg">
<path d="M5.43 10.8194C7.59 14.75 11.07 17.9583 15.315 19.9722L18.615 16.9167C19.02 16.5417 19.62 16.4167 20.145 16.5833C21.825 17.0972 23.64 17.375 25.5 17.375C26.325 17.375 27 18 27 18.7639V23.6111C27 24.375 26.325 25 25.5 25C11.415 25 0 14.4306 0 1.38889C0 0.625 0.675 0 1.5 0H6.75C7.575 0 8.25 0.625 8.25 1.38889C8.25 3.125 8.55 4.79167 9.105 6.34722C9.27 6.83333 9.15 7.375 8.73 7.76389L5.43 10.8194Z" fill="#0038FF"/>
</svg>
