<svg width="90" height="90" viewBox="0 0 90 90" fill="none" xmlns="http://www.w3.org/2000/svg">
<rect width="90" height="90" rx="45" fill="#F0F2F9"/>
<path fill-rule="evenodd" clip-rule="evenodd" d="M37.6659 32.4783C38.1109 30.295 40.0543 28.75 42.2793 28.75H47.7259C49.9509 28.75 51.8926 30.295 52.3393 32.4783C52.3885 32.7188 52.5172 32.9356 52.7046 33.094C52.8921 33.2524 53.1273 33.3432 53.3726 33.3517H53.4276C55.7659 33.455 57.5626 33.7417 59.0626 34.7267C60.0076 35.3467 60.8209 36.1433 61.4543 37.075C62.2426 38.2317 62.5893 39.5617 62.7559 41.1683C62.9193 42.74 62.9193 44.7083 62.9193 47.2017V47.3433C62.9193 49.8367 62.9193 51.8067 62.7559 53.3767C62.5893 54.9833 62.2426 56.3133 61.4543 57.4717C60.819 58.4039 60.0063 59.2018 59.0626 59.82C57.8909 60.5883 56.5459 60.9283 54.9159 61.09C53.3193 61.25 51.3176 61.25 48.7743 61.25H41.2309C38.6876 61.25 36.6859 61.25 35.0893 61.09C33.4593 60.9283 32.1143 60.59 30.9426 59.82C29.9988 59.2013 29.1861 58.4028 28.5509 57.47C27.7626 56.3133 27.4159 54.9833 27.2493 53.3767C27.0859 51.8067 27.0859 49.8367 27.0859 47.3433V47.2017C27.0859 44.7083 27.0859 42.74 27.2493 41.1683C27.4159 39.5617 27.7626 38.2317 28.5509 37.075C29.1861 36.1422 29.9988 35.3437 30.9426 34.725C32.4426 33.7417 34.2393 33.455 36.5776 33.3533L36.6059 33.3517H36.6326C36.8779 33.3432 37.1131 33.2524 37.3006 33.094C37.488 32.9356 37.6167 32.7188 37.6659 32.4783ZM42.2793 31.25C41.2126 31.25 40.3176 31.9883 40.1159 32.9767C39.7909 34.5767 38.3709 35.8367 36.6626 35.8517C34.4159 35.9517 33.2126 36.2267 32.3126 36.8167C31.6441 37.2554 31.0682 37.8211 30.6176 38.4817C30.1576 39.1567 29.8809 40.0217 29.7343 41.4267C29.5876 42.8533 29.5859 44.6933 29.5859 47.2733C29.5859 49.8533 29.5859 51.6917 29.7359 53.1183C29.8809 54.5233 30.1576 55.3883 30.6193 56.065C31.0659 56.7217 31.6409 57.2883 32.3143 57.73C33.0093 58.185 33.8993 58.46 35.3376 58.6033C36.7943 58.7483 38.6709 58.75 41.2993 58.75H48.7059C51.3326 58.75 53.2093 58.75 54.6676 58.6033C56.1059 58.46 56.9959 58.1867 57.6909 57.73C58.3643 57.2883 58.9409 56.7217 59.3876 56.0633C59.8476 55.3883 60.1243 54.5233 60.2709 53.1183C60.4176 51.6917 60.4193 49.8517 60.4193 47.2733C60.4193 44.6933 60.4193 42.8533 60.2693 41.4267C60.1243 40.0217 59.8476 39.1567 59.3859 38.4817C58.9359 37.8202 58.3599 37.2539 57.6909 36.815C56.7943 36.2267 55.5909 35.9517 53.3409 35.8517C51.6343 35.835 50.2143 34.5783 49.8893 32.9767C49.7826 32.4838 49.5091 32.0428 49.115 31.7282C48.7208 31.4137 48.2302 31.2447 47.7259 31.25H42.2793ZM45.0026 42.9167C44.008 42.9167 43.0542 43.3118 42.351 44.015C41.6477 44.7183 41.2526 45.6721 41.2526 46.6667C41.2526 47.6612 41.6477 48.6151 42.351 49.3183C43.0542 50.0216 44.008 50.4167 45.0026 50.4167C45.9972 50.4167 46.951 50.0216 47.6543 49.3183C48.3575 48.6151 48.7526 47.6612 48.7526 46.6667C48.7526 45.6721 48.3575 44.7183 47.6543 44.015C46.951 43.3118 45.9972 42.9167 45.0026 42.9167ZM38.7526 46.6667C38.7526 45.0091 39.4111 43.4194 40.5832 42.2472C41.7553 41.0751 43.345 40.4167 45.0026 40.4167C46.6602 40.4167 48.2499 41.0751 49.422 42.2472C50.5941 43.4194 51.2526 45.0091 51.2526 46.6667C51.2526 48.3243 50.5941 49.914 49.422 51.0861C48.2499 52.2582 46.6602 52.9167 45.0026 52.9167C43.345 52.9167 41.7553 52.2582 40.5832 51.0861C39.4111 49.914 38.7526 48.3243 38.7526 46.6667ZM53.7526 41.6667C53.7526 41.3351 53.8843 41.0172 54.1187 40.7828C54.3531 40.5484 54.6711 40.4167 55.0026 40.4167H56.6693C57.0008 40.4167 57.3187 40.5484 57.5532 40.7828C57.7876 41.0172 57.9193 41.3351 57.9193 41.6667C57.9193 41.9982 57.7876 42.3161 57.5532 42.5505C57.3187 42.785 57.0008 42.9167 56.6693 42.9167H55.0026C54.6711 42.9167 54.3531 42.785 54.1187 42.5505C53.8843 42.3161 53.7526 41.9982 53.7526 41.6667Z" fill="#0038FF"/>
</svg>
