<svg width="24" height="24" viewBox="0 0 24 24" fill="none" xmlns="http://www.w3.org/2000/svg">
<path fill-rule="evenodd" clip-rule="evenodd" d="M10 8H14C15.1046 8 16 8.89543 16 10V14C16 15.1046 15.1046 16 14 16H10C8.89543 16 8 15.1046 8 14V10C8 8.89543 8.89543 8 10 8ZM14 14.5C14.2761 14.5 14.5 14.2761 14.5 14V10C14.5 9.72386 14.2761 9.5 14 9.5H10C9.72386 9.5 9.5 9.72386 9.5 10V14C9.5 14.2761 9.72386 14.5 10 14.5H14Z" fill="#0038FF"/>
<path fill-rule="evenodd" clip-rule="evenodd" d="M19 13.25H22C22.4142 13.25 22.75 13.5858 22.75 14C22.75 14.4142 22.4142 14.75 22 14.75H19V15C19 17.2091 17.2091 19 15 19H14.75V22C14.75 22.4142 14.4142 22.75 14 22.75C13.5858 22.75 13.25 22.4142 13.25 22V19H10.75V22C10.75 22.4142 10.4142 22.75 10 22.75C9.58579 22.75 9.25 22.4142 9.25 22V19H9C6.79086 19 5 17.2091 5 15V14.75H2C1.58579 14.75 1.25 14.4142 1.25 14C1.25 13.5858 1.58579 13.25 2 13.25H5V10.75H2C1.58579 10.75 1.25 10.4142 1.25 10C1.25 9.58579 1.58579 9.25 2 9.25H5V9C5 6.79086 6.79086 5 9 5H9.25V2C9.25 1.58579 9.58579 1.25 10 1.25C10.4142 1.25 10.75 1.58579 10.75 2V5H13.25V2C13.25 1.58579 13.5858 1.25 14 1.25C14.4142 1.25 14.75 1.58579 14.75 2V5H15C17.2091 5 19 6.79086 19 9V9.25H22C22.4142 9.25 22.75 9.58579 22.75 10C22.75 10.4142 22.4142 10.75 22 10.75H19V13.25ZM15 17.5C16.3807 17.5 17.5 16.3807 17.5 15V9C17.5 7.61929 16.3807 6.5 15 6.5H9C7.61929 6.5 6.5 7.61929 6.5 9V15C6.5 16.3807 7.61929 17.5 9 17.5H15Z" fill="#0038FF"/>
</svg>
