<svg width="237" height="142" viewBox="0 0 237 142" fill="none" xmlns="http://www.w3.org/2000/svg">
<path d="M30 42.7044L43.0357 39.4465L48.4821 56L30 42.7044ZM60 21.3082H37.0536L30 0L22.9464 21.3082H0L18.5714 34.5157L11.5178 55.8239L30.0893 42.6163L41.5178 34.5157L60 21.3082Z" fill="#219653"/>
<path d="M78.5898 13.5625V42H73.7266V13.5625H78.5898ZM87.5156 13.5625V17.4688H64.8789V13.5625H87.5156ZM94.1172 24.8906V42H89.4102V20.8672H93.9023L94.1172 24.8906ZM100.582 20.7305L100.543 25.1055C100.257 25.0534 99.944 25.0143 99.6055 24.9883C99.2799 24.9622 98.9544 24.9492 98.6289 24.9492C97.8216 24.9492 97.112 25.0664 96.5 25.3008C95.888 25.5221 95.3737 25.8477 94.957 26.2773C94.5534 26.694 94.2409 27.2018 94.0195 27.8008C93.7982 28.3997 93.668 29.0703 93.6289 29.8125L92.5547 29.8906C92.5547 28.5625 92.6849 27.332 92.9453 26.1992C93.2057 25.0664 93.5964 24.0703 94.1172 23.2109C94.651 22.3516 95.3151 21.681 96.1094 21.1992C96.9167 20.7174 97.8477 20.4766 98.9023 20.4766C99.1888 20.4766 99.4948 20.5026 99.8203 20.5547C100.159 20.6068 100.413 20.6654 100.582 20.7305ZM116.246 37.0195V20.8672H120.973V42H116.52L116.246 37.0195ZM116.91 32.625L118.492 32.5859C118.492 34.0052 118.336 35.3138 118.023 36.5117C117.711 37.6966 117.229 38.7318 116.578 39.6172C115.927 40.4896 115.094 41.1732 114.078 41.668C113.062 42.1497 111.845 42.3906 110.426 42.3906C109.397 42.3906 108.453 42.2409 107.594 41.9414C106.734 41.6419 105.992 41.1797 105.367 40.5547C104.755 39.9297 104.28 39.1159 103.941 38.1133C103.603 37.1107 103.434 35.9128 103.434 34.5195V20.8672H108.141V34.5586C108.141 35.3268 108.232 35.9714 108.414 36.4922C108.596 37 108.844 37.4102 109.156 37.7227C109.469 38.0352 109.833 38.2565 110.25 38.3867C110.667 38.5169 111.109 38.582 111.578 38.582C112.919 38.582 113.974 38.3216 114.742 37.8008C115.523 37.2669 116.077 36.5508 116.402 35.6523C116.741 34.7539 116.91 33.7448 116.91 32.625ZM137.652 36.2773C137.652 35.8086 137.535 35.3854 137.301 35.0078C137.066 34.6172 136.617 34.2656 135.953 33.9531C135.302 33.6406 134.339 33.3542 133.062 33.0938C131.943 32.8464 130.914 32.5534 129.977 32.2148C129.052 31.8633 128.258 31.4401 127.594 30.9453C126.93 30.4505 126.415 29.8646 126.051 29.1875C125.686 28.5104 125.504 27.7292 125.504 26.8438C125.504 25.9844 125.693 25.1706 126.07 24.4023C126.448 23.6341 126.988 22.957 127.691 22.3711C128.395 21.7852 129.247 21.3229 130.25 20.9844C131.266 20.6458 132.398 20.4766 133.648 20.4766C135.419 20.4766 136.936 20.776 138.199 21.375C139.475 21.9609 140.452 22.7617 141.129 23.7773C141.806 24.7799 142.145 25.9128 142.145 27.1758H137.438C137.438 26.6159 137.294 26.0951 137.008 25.6133C136.734 25.1185 136.318 24.7214 135.758 24.4219C135.198 24.1094 134.495 23.9531 133.648 23.9531C132.841 23.9531 132.171 24.0833 131.637 24.3438C131.116 24.5911 130.725 24.9167 130.465 25.3203C130.217 25.724 130.094 26.1667 130.094 26.6484C130.094 27 130.159 27.319 130.289 27.6055C130.432 27.8789 130.667 28.1328 130.992 28.3672C131.318 28.5885 131.76 28.7969 132.32 28.9922C132.893 29.1875 133.609 29.3763 134.469 29.5586C136.083 29.8971 137.47 30.3333 138.629 30.8672C139.801 31.388 140.699 32.0651 141.324 32.8984C141.949 33.7188 142.262 34.7604 142.262 36.0234C142.262 36.9609 142.06 37.8203 141.656 38.6016C141.266 39.3698 140.693 40.0404 139.938 40.6133C139.182 41.1732 138.277 41.6094 137.223 41.9219C136.181 42.2344 135.009 42.3906 133.707 42.3906C131.793 42.3906 130.172 42.0521 128.844 41.375C127.516 40.6849 126.507 39.806 125.816 38.7383C125.139 37.6576 124.801 36.5378 124.801 35.3789H129.352C129.404 36.2513 129.645 36.9479 130.074 37.4688C130.517 37.9766 131.064 38.3477 131.715 38.582C132.379 38.8034 133.062 38.9141 133.766 38.9141C134.612 38.9141 135.322 38.8034 135.895 38.582C136.467 38.3477 136.904 38.0352 137.203 37.6445C137.503 37.2409 137.652 36.7852 137.652 36.2773ZM156.07 20.8672V24.3047H144.156V20.8672H156.07ZM147.594 15.6914H152.301V36.1602C152.301 36.8112 152.392 37.3125 152.574 37.6641C152.77 38.0026 153.036 38.2305 153.375 38.3477C153.714 38.4648 154.111 38.5234 154.566 38.5234C154.892 38.5234 155.204 38.5039 155.504 38.4648C155.803 38.4258 156.044 38.3867 156.227 38.3477L156.246 41.9414C155.855 42.0586 155.4 42.1628 154.879 42.2539C154.371 42.3451 153.785 42.3906 153.121 42.3906C152.04 42.3906 151.083 42.2018 150.25 41.8242C149.417 41.4336 148.766 40.8021 148.297 39.9297C147.828 39.0573 147.594 37.8984 147.594 36.4531V15.6914ZM164.43 24.9297V50.125H159.723V20.8672H164.059L164.43 24.9297ZM178.199 31.2383V31.6484C178.199 33.1849 178.017 34.6107 177.652 35.9258C177.301 37.2279 176.773 38.3672 176.07 39.3438C175.38 40.3073 174.527 41.056 173.512 41.5898C172.496 42.1237 171.324 42.3906 169.996 42.3906C168.681 42.3906 167.529 42.1497 166.539 41.668C165.562 41.1732 164.736 40.4766 164.059 39.5781C163.382 38.6797 162.835 37.625 162.418 36.4141C162.014 35.1901 161.728 33.849 161.559 32.3906V30.8086C161.728 29.2591 162.014 27.8529 162.418 26.5898C162.835 25.3268 163.382 24.2396 164.059 23.3281C164.736 22.4167 165.562 21.7135 166.539 21.2188C167.516 20.724 168.655 20.4766 169.957 20.4766C171.285 20.4766 172.464 20.737 173.492 21.2578C174.521 21.7656 175.387 22.4948 176.09 23.4453C176.793 24.3828 177.32 25.5156 177.672 26.8438C178.023 28.1589 178.199 29.6237 178.199 31.2383ZM173.492 31.6484V31.2383C173.492 30.2617 173.401 29.3568 173.219 28.5234C173.036 27.6771 172.75 26.9349 172.359 26.2969C171.969 25.6589 171.467 25.1641 170.855 24.8125C170.257 24.4479 169.534 24.2656 168.688 24.2656C167.854 24.2656 167.138 24.4089 166.539 24.6953C165.94 24.9688 165.439 25.3529 165.035 25.8477C164.632 26.3424 164.319 26.9219 164.098 27.5859C163.876 28.237 163.72 28.9466 163.629 29.7148V33.5039C163.785 34.4414 164.052 35.3008 164.43 36.082C164.807 36.8633 165.341 37.4883 166.031 37.957C166.734 38.4128 167.633 38.6406 168.727 38.6406C169.573 38.6406 170.296 38.4583 170.895 38.0938C171.493 37.7292 171.982 37.2279 172.359 36.5898C172.75 35.9388 173.036 35.1901 173.219 34.3438C173.401 33.4974 173.492 32.599 173.492 31.6484ZM187.242 20.8672V42H182.516V20.8672H187.242ZM182.203 15.3203C182.203 14.6042 182.438 14.0117 182.906 13.543C183.388 13.0612 184.052 12.8203 184.898 12.8203C185.732 12.8203 186.389 13.0612 186.871 13.543C187.353 14.0117 187.594 14.6042 187.594 15.3203C187.594 16.0234 187.353 16.6094 186.871 17.0781C186.389 17.5469 185.732 17.7812 184.898 17.7812C184.052 17.7812 183.388 17.5469 182.906 17.0781C182.438 16.6094 182.203 16.0234 182.203 15.3203ZM197.438 12V42H192.711V12H197.438ZM201.695 31.668V31.2188C201.695 29.6953 201.917 28.2826 202.359 26.9805C202.802 25.6654 203.44 24.526 204.273 23.5625C205.12 22.5859 206.148 21.8307 207.359 21.2969C208.583 20.75 209.964 20.4766 211.5 20.4766C213.049 20.4766 214.43 20.75 215.641 21.2969C216.865 21.8307 217.9 22.5859 218.746 23.5625C219.592 24.526 220.237 25.6654 220.68 26.9805C221.122 28.2826 221.344 29.6953 221.344 31.2188V31.668C221.344 33.1914 221.122 34.6042 220.68 35.9062C220.237 37.2083 219.592 38.3477 218.746 39.3242C217.9 40.2878 216.871 41.043 215.66 41.5898C214.449 42.1237 213.076 42.3906 211.539 42.3906C209.99 42.3906 208.603 42.1237 207.379 41.5898C206.168 41.043 205.139 40.2878 204.293 39.3242C203.447 38.3477 202.802 37.2083 202.359 35.9062C201.917 34.6042 201.695 33.1914 201.695 31.668ZM206.402 31.2188V31.668C206.402 32.6185 206.5 33.5169 206.695 34.3633C206.891 35.2096 207.197 35.9518 207.613 36.5898C208.03 37.2279 208.564 37.7292 209.215 38.0938C209.866 38.4583 210.641 38.6406 211.539 38.6406C212.411 38.6406 213.167 38.4583 213.805 38.0938C214.456 37.7292 214.99 37.2279 215.406 36.5898C215.823 35.9518 216.129 35.2096 216.324 34.3633C216.533 33.5169 216.637 32.6185 216.637 31.668V31.2188C216.637 30.2812 216.533 29.3958 216.324 28.5625C216.129 27.7161 215.816 26.9674 215.387 26.3164C214.97 25.6654 214.436 25.1576 213.785 24.793C213.147 24.4154 212.385 24.2266 211.5 24.2266C210.615 24.2266 209.846 24.4154 209.195 24.793C208.557 25.1576 208.03 25.6654 207.613 26.3164C207.197 26.9674 206.891 27.7161 206.695 28.5625C206.5 29.3958 206.402 30.2812 206.402 31.2188ZM234.977 20.8672V24.3047H223.062V20.8672H234.977ZM226.5 15.6914H231.207V36.1602C231.207 36.8112 231.298 37.3125 231.48 37.6641C231.676 38.0026 231.943 38.2305 232.281 38.3477C232.62 38.4648 233.017 38.5234 233.473 38.5234C233.798 38.5234 234.111 38.5039 234.41 38.4648C234.71 38.4258 234.951 38.3867 235.133 38.3477L235.152 41.9414C234.762 42.0586 234.306 42.1628 233.785 42.2539C233.277 42.3451 232.691 42.3906 232.027 42.3906C230.947 42.3906 229.99 42.2018 229.156 41.8242C228.323 41.4336 227.672 40.8021 227.203 39.9297C226.734 39.0573 226.5 37.8984 226.5 36.4531V15.6914Z" fill="black"/>
<path d="M7.61133 71.7324V86H5.25781V74.5254L1.77148 75.707V73.7637L7.32812 71.7324H7.61133ZM21.8203 77.6992V80.0234C21.8203 81.1367 21.7096 82.0872 21.4883 82.875C21.2734 83.6562 20.9609 84.291 20.5508 84.7793C20.1406 85.2676 19.6491 85.6257 19.0762 85.8535C18.5098 86.0814 17.875 86.1953 17.1719 86.1953C16.612 86.1953 16.0911 86.1237 15.6094 85.9805C15.1341 85.8372 14.7044 85.6126 14.3203 85.3066C13.9362 85.0007 13.6074 84.6068 13.334 84.125C13.0671 83.6367 12.8587 83.054 12.709 82.377C12.5658 81.6999 12.4941 80.9154 12.4941 80.0234V77.6992C12.4941 76.5794 12.6048 75.6354 12.8262 74.8672C13.0475 74.0924 13.3633 73.4642 13.7734 72.9824C14.1836 72.4941 14.6719 72.1393 15.2383 71.918C15.8112 71.6966 16.4492 71.5859 17.1523 71.5859C17.7188 71.5859 18.2396 71.6576 18.7148 71.8008C19.1966 71.9375 19.6263 72.1556 20.0039 72.4551C20.388 72.7546 20.7135 73.1452 20.9805 73.627C21.2539 74.1022 21.4622 74.6784 21.6055 75.3555C21.7487 76.026 21.8203 76.8073 21.8203 77.6992ZM19.4668 80.3555V77.3477C19.4668 76.7812 19.4342 76.2832 19.3691 75.8535C19.304 75.4173 19.2064 75.0495 19.0762 74.75C18.9525 74.444 18.7962 74.1966 18.6074 74.0078C18.4186 73.8125 18.2038 73.6725 17.9629 73.5879C17.722 73.4967 17.4518 73.4512 17.1523 73.4512C16.7878 73.4512 16.4622 73.5228 16.1758 73.666C15.8893 73.8027 15.6484 74.0241 15.4531 74.3301C15.2578 74.6361 15.1081 75.0397 15.0039 75.541C14.9062 76.0358 14.8574 76.638 14.8574 77.3477V80.3555C14.8574 80.9284 14.89 81.4329 14.9551 81.8691C15.0202 82.3053 15.1178 82.6797 15.248 82.9922C15.3783 83.2982 15.5345 83.5521 15.7168 83.7539C15.9056 83.9492 16.1204 84.0924 16.3613 84.1836C16.6087 84.2747 16.8789 84.3203 17.1719 84.3203C17.543 84.3203 17.8717 84.2487 18.1582 84.1055C18.4447 83.9622 18.6855 83.7344 18.8809 83.4219C19.0762 83.1029 19.2227 82.6895 19.3203 82.1816C19.418 81.6738 19.4668 81.0651 19.4668 80.3555ZM29.2715 71.7812H34.3008C35.3815 71.7812 36.3027 71.944 37.0645 72.2695C37.8262 72.5951 38.4089 73.0768 38.8125 73.7148C39.2227 74.3464 39.4277 75.1276 39.4277 76.0586C39.4277 76.7682 39.2975 77.3932 39.0371 77.9336C38.7767 78.474 38.4089 78.9297 37.9336 79.3008C37.4583 79.6654 36.8919 79.9486 36.2344 80.1504L35.4922 80.5117H30.9707L30.9512 78.5684H34.3398C34.9258 78.5684 35.4141 78.4642 35.8047 78.2559C36.1953 78.0475 36.4883 77.7643 36.6836 77.4062C36.8854 77.0417 36.9863 76.6315 36.9863 76.1758C36.9863 75.681 36.8887 75.2513 36.6934 74.8867C36.5046 74.5156 36.2116 74.2324 35.8145 74.0371C35.4173 73.8353 34.9128 73.7344 34.3008 73.7344H31.7227V86H29.2715V71.7812ZM37.3867 86L34.0469 79.6133L36.6152 79.6035L40.0039 85.873V86H37.3867ZM46.293 86.1953C45.5117 86.1953 44.8053 86.0684 44.1738 85.8145C43.5488 85.554 43.015 85.1927 42.5723 84.7305C42.1361 84.2682 41.8008 83.7246 41.5664 83.0996C41.332 82.4746 41.2148 81.8008 41.2148 81.0781V80.6875C41.2148 79.8607 41.3353 79.112 41.5762 78.4414C41.8171 77.7708 42.1523 77.1979 42.582 76.7227C43.0117 76.2409 43.5195 75.873 44.1055 75.6191C44.6914 75.3652 45.3262 75.2383 46.0098 75.2383C46.765 75.2383 47.4258 75.3652 47.9922 75.6191C48.5586 75.873 49.0273 76.2311 49.3984 76.6934C49.776 77.1491 50.056 77.6927 50.2383 78.3242C50.4271 78.9557 50.5215 79.6523 50.5215 80.4141V81.4199H42.3574V79.7305H48.1973V79.5449C48.1842 79.1217 48.0996 78.7246 47.9434 78.3535C47.7936 77.9824 47.5625 77.6829 47.25 77.4551C46.9375 77.2272 46.5208 77.1133 46 77.1133C45.6094 77.1133 45.2611 77.1979 44.9551 77.3672C44.6556 77.5299 44.4049 77.7676 44.2031 78.0801C44.0013 78.3926 43.8451 78.7702 43.7344 79.2129C43.6302 79.6491 43.5781 80.1406 43.5781 80.6875V81.0781C43.5781 81.5404 43.64 81.9701 43.7637 82.3672C43.8939 82.7578 44.0827 83.0996 44.3301 83.3926C44.5775 83.6855 44.877 83.9167 45.2285 84.0859C45.5801 84.2487 45.9805 84.3301 46.4297 84.3301C46.9961 84.3301 47.5007 84.2161 47.9434 83.9883C48.3861 83.7604 48.7702 83.4382 49.0957 83.0215L50.3359 84.2227C50.1081 84.5547 49.8118 84.8737 49.4473 85.1797C49.0827 85.4792 48.6367 85.7233 48.1094 85.9121C47.5885 86.1009 46.9831 86.1953 46.293 86.1953ZM55.6582 84.1348L58.2461 75.4336H60.6875L57.0156 86H55.4922L55.6582 84.1348ZM53.6758 75.4336L56.3125 84.1738L56.4395 86H54.916L51.2246 75.4336H53.6758ZM64.6621 75.4336V86H62.2988V75.4336H64.6621ZM62.1426 72.6602C62.1426 72.3021 62.2598 72.0059 62.4941 71.7715C62.735 71.5306 63.0671 71.4102 63.4902 71.4102C63.9069 71.4102 64.2357 71.5306 64.4766 71.7715C64.7174 72.0059 64.8379 72.3021 64.8379 72.6602C64.8379 73.0117 64.7174 73.3047 64.4766 73.5391C64.2357 73.7734 63.9069 73.8906 63.4902 73.8906C63.0671 73.8906 62.735 73.7734 62.4941 73.5391C62.2598 73.3047 62.1426 73.0117 62.1426 72.6602ZM71.8984 86.1953C71.1172 86.1953 70.4108 86.0684 69.7793 85.8145C69.1543 85.554 68.6204 85.1927 68.1777 84.7305C67.7415 84.2682 67.4062 83.7246 67.1719 83.0996C66.9375 82.4746 66.8203 81.8008 66.8203 81.0781V80.6875C66.8203 79.8607 66.9408 79.112 67.1816 78.4414C67.4225 77.7708 67.7578 77.1979 68.1875 76.7227C68.6172 76.2409 69.125 75.873 69.7109 75.6191C70.2969 75.3652 70.9316 75.2383 71.6152 75.2383C72.3704 75.2383 73.0312 75.3652 73.5977 75.6191C74.1641 75.873 74.6328 76.2311 75.0039 76.6934C75.3815 77.1491 75.6615 77.6927 75.8438 78.3242C76.0326 78.9557 76.127 79.6523 76.127 80.4141V81.4199H67.9629V79.7305H73.8027V79.5449C73.7897 79.1217 73.7051 78.7246 73.5488 78.3535C73.3991 77.9824 73.168 77.6829 72.8555 77.4551C72.543 77.2272 72.1263 77.1133 71.6055 77.1133C71.2148 77.1133 70.8665 77.1979 70.5605 77.3672C70.2611 77.5299 70.0104 77.7676 69.8086 78.0801C69.6068 78.3926 69.4505 78.7702 69.3398 79.2129C69.2357 79.6491 69.1836 80.1406 69.1836 80.6875V81.0781C69.1836 81.5404 69.2454 81.9701 69.3691 82.3672C69.4993 82.7578 69.6882 83.0996 69.9355 83.3926C70.1829 83.6855 70.4824 83.9167 70.834 84.0859C71.1855 84.2487 71.5859 84.3301 72.0352 84.3301C72.6016 84.3301 73.1061 84.2161 73.5488 83.9883C73.9915 83.7604 74.3757 83.4382 74.7012 83.0215L75.9414 84.2227C75.7135 84.5547 75.4173 84.8737 75.0527 85.1797C74.6882 85.4792 74.2422 85.7233 73.7148 85.9121C73.194 86.1009 72.5885 86.1953 71.8984 86.1953ZM80.834 83.6562L83.2754 75.4336H84.7793L84.3691 77.8945L81.9082 86H80.5605L80.834 83.6562ZM79.3984 75.4336L81.3027 83.6953L81.459 86H79.9551L77.0938 75.4336H79.3984ZM87.0645 83.5977L88.9102 75.4336H91.2051L88.3535 86H86.8496L87.0645 83.5977ZM85.0332 75.4336L87.4453 83.5586L87.748 86H86.4004L83.9102 77.8848L83.5 75.4336H85.0332ZM98.7344 83.1387C98.7344 82.9043 98.6758 82.6927 98.5586 82.5039C98.4414 82.3086 98.2168 82.1328 97.8848 81.9766C97.5592 81.8203 97.0775 81.6771 96.4395 81.5469C95.8796 81.4232 95.3652 81.2767 94.8965 81.1074C94.4342 80.9316 94.0371 80.7201 93.7051 80.4727C93.373 80.2253 93.1159 79.9323 92.9336 79.5938C92.7513 79.2552 92.6602 78.8646 92.6602 78.4219C92.6602 77.9922 92.7546 77.5853 92.9434 77.2012C93.1322 76.8171 93.4023 76.4785 93.7539 76.1855C94.1055 75.8926 94.5319 75.6615 95.0332 75.4922C95.541 75.3229 96.1074 75.2383 96.7324 75.2383C97.6178 75.2383 98.3763 75.388 99.0078 75.6875C99.6458 75.9805 100.134 76.3809 100.473 76.8887C100.811 77.39 100.98 77.9564 100.98 78.5879H98.627C98.627 78.3079 98.5553 78.0475 98.4121 77.8066C98.2754 77.5592 98.0671 77.3607 97.7871 77.2109C97.5072 77.0547 97.1556 76.9766 96.7324 76.9766C96.3288 76.9766 95.9935 77.0417 95.7266 77.1719C95.4661 77.2956 95.2708 77.4583 95.1406 77.6602C95.0169 77.862 94.9551 78.0833 94.9551 78.3242C94.9551 78.5 94.9876 78.6595 95.0527 78.8027C95.1243 78.9395 95.2415 79.0664 95.4043 79.1836C95.5671 79.2943 95.7884 79.3984 96.0684 79.4961C96.3548 79.5938 96.7129 79.6882 97.1426 79.7793C97.9499 79.9486 98.6432 80.1667 99.2227 80.4336C99.8086 80.694 100.258 81.0326 100.57 81.4492C100.883 81.8594 101.039 82.3802 101.039 83.0117C101.039 83.4805 100.938 83.9102 100.736 84.3008C100.541 84.6849 100.255 85.0202 99.877 85.3066C99.4993 85.5866 99.0469 85.8047 98.5195 85.9609C97.9987 86.1172 97.4128 86.1953 96.7617 86.1953C95.8047 86.1953 94.9941 86.026 94.3301 85.6875C93.666 85.3424 93.1615 84.903 92.8164 84.3691C92.4779 83.8288 92.3086 83.2689 92.3086 82.6895H94.584C94.61 83.1257 94.7305 83.474 94.9453 83.7344C95.1667 83.9883 95.4401 84.1738 95.7656 84.291C96.0977 84.4017 96.4395 84.457 96.791 84.457C97.2142 84.457 97.569 84.4017 97.8555 84.291C98.1419 84.1738 98.36 84.0176 98.5098 83.8223C98.6595 83.6204 98.7344 83.3926 98.7344 83.1387Z" fill="#69696A"/>
<path d="M115.324 78.8711V78.4902C115.324 77.8783 115.516 77.377 115.9 76.9863C116.291 76.5957 116.818 76.4004 117.482 76.4004C118.153 76.4004 118.684 76.5957 119.074 76.9863C119.465 77.377 119.66 77.8783 119.66 78.4902V78.8711C119.66 79.4766 119.465 79.9746 119.074 80.3652C118.69 80.7493 118.163 80.9414 117.492 80.9414C116.828 80.9414 116.301 80.7493 115.91 80.3652C115.52 79.9746 115.324 79.4766 115.324 78.8711ZM143.225 84.0566V86H135.676V84.0566H143.225ZM136.369 71.7812V86H133.918V71.7812H136.369ZM142.238 77.7188V79.6328H135.676V77.7188H142.238ZM143.176 71.7812V73.7344H135.676V71.7812H143.176ZM146.789 75.4336L148.801 78.9395L150.852 75.4336H153.439L150.236 80.6191L153.566 86H150.979L148.83 82.3477L146.682 86H144.084L147.404 80.6191L144.211 75.4336H146.789ZM159.172 84.3203C159.556 84.3203 159.901 84.2454 160.207 84.0957C160.52 83.9395 160.77 83.7246 160.959 83.4512C161.154 83.1777 161.262 82.862 161.281 82.5039H163.498C163.485 83.1875 163.283 83.8092 162.893 84.3691C162.502 84.929 161.984 85.375 161.34 85.707C160.695 86.0326 159.982 86.1953 159.201 86.1953C158.394 86.1953 157.691 86.0586 157.092 85.7852C156.493 85.5052 155.995 85.1211 155.598 84.6328C155.201 84.1445 154.901 83.5814 154.699 82.9434C154.504 82.3053 154.406 81.6217 154.406 80.8926V80.5508C154.406 79.8216 154.504 79.138 154.699 78.5C154.901 77.8555 155.201 77.2891 155.598 76.8008C155.995 76.3125 156.493 75.9316 157.092 75.6582C157.691 75.3783 158.391 75.2383 159.191 75.2383C160.038 75.2383 160.78 75.4076 161.418 75.7461C162.056 76.0781 162.557 76.5436 162.922 77.1426C163.293 77.735 163.485 78.4251 163.498 79.2129H161.281C161.262 78.8223 161.164 78.4707 160.988 78.1582C160.819 77.8392 160.578 77.5853 160.266 77.3965C159.96 77.2077 159.592 77.1133 159.162 77.1133C158.687 77.1133 158.293 77.2109 157.98 77.4062C157.668 77.5951 157.424 77.8555 157.248 78.1875C157.072 78.513 156.945 78.8809 156.867 79.291C156.796 79.6947 156.76 80.1146 156.76 80.5508V80.8926C156.76 81.3288 156.796 81.752 156.867 82.1621C156.939 82.5723 157.062 82.9401 157.238 83.2656C157.421 83.5846 157.668 83.8418 157.98 84.0371C158.293 84.2259 158.69 84.3203 159.172 84.3203ZM169.963 86.1953C169.182 86.1953 168.475 86.0684 167.844 85.8145C167.219 85.554 166.685 85.1927 166.242 84.7305C165.806 84.2682 165.471 83.7246 165.236 83.0996C165.002 82.4746 164.885 81.8008 164.885 81.0781V80.6875C164.885 79.8607 165.005 79.112 165.246 78.4414C165.487 77.7708 165.822 77.1979 166.252 76.7227C166.682 76.2409 167.189 75.873 167.775 75.6191C168.361 75.3652 168.996 75.2383 169.68 75.2383C170.435 75.2383 171.096 75.3652 171.662 75.6191C172.229 75.873 172.697 76.2311 173.068 76.6934C173.446 77.1491 173.726 77.6927 173.908 78.3242C174.097 78.9557 174.191 79.6523 174.191 80.4141V81.4199H166.027V79.7305H171.867V79.5449C171.854 79.1217 171.77 78.7246 171.613 78.3535C171.464 77.9824 171.232 77.6829 170.92 77.4551C170.607 77.2272 170.191 77.1133 169.67 77.1133C169.279 77.1133 168.931 77.1979 168.625 77.3672C168.326 77.5299 168.075 77.7676 167.873 78.0801C167.671 78.3926 167.515 78.7702 167.404 79.2129C167.3 79.6491 167.248 80.1406 167.248 80.6875V81.0781C167.248 81.5404 167.31 81.9701 167.434 82.3672C167.564 82.7578 167.753 83.0996 168 83.3926C168.247 83.6855 168.547 83.9167 168.898 84.0859C169.25 84.2487 169.65 84.3301 170.1 84.3301C170.666 84.3301 171.171 84.2161 171.613 83.9883C172.056 83.7604 172.44 83.4382 172.766 83.0215L174.006 84.2227C173.778 84.5547 173.482 84.8737 173.117 85.1797C172.753 85.4792 172.307 85.7233 171.779 85.9121C171.258 86.1009 170.653 86.1953 169.963 86.1953ZM178.547 71V86H176.184V71H178.547ZM183.645 71V86H181.281V71H183.645ZM190.881 86.1953C190.1 86.1953 189.393 86.0684 188.762 85.8145C188.137 85.554 187.603 85.1927 187.16 84.7305C186.724 84.2682 186.389 83.7246 186.154 83.0996C185.92 82.4746 185.803 81.8008 185.803 81.0781V80.6875C185.803 79.8607 185.923 79.112 186.164 78.4414C186.405 77.7708 186.74 77.1979 187.17 76.7227C187.6 76.2409 188.107 75.873 188.693 75.6191C189.279 75.3652 189.914 75.2383 190.598 75.2383C191.353 75.2383 192.014 75.3652 192.58 75.6191C193.146 75.873 193.615 76.2311 193.986 76.6934C194.364 77.1491 194.644 77.6927 194.826 78.3242C195.015 78.9557 195.109 79.6523 195.109 80.4141V81.4199H186.945V79.7305H192.785V79.5449C192.772 79.1217 192.688 78.7246 192.531 78.3535C192.382 77.9824 192.15 77.6829 191.838 77.4551C191.525 77.2272 191.109 77.1133 190.588 77.1133C190.197 77.1133 189.849 77.1979 189.543 77.3672C189.243 77.5299 188.993 77.7676 188.791 78.0801C188.589 78.3926 188.433 78.7702 188.322 79.2129C188.218 79.6491 188.166 80.1406 188.166 80.6875V81.0781C188.166 81.5404 188.228 81.9701 188.352 82.3672C188.482 82.7578 188.671 83.0996 188.918 83.3926C189.165 83.6855 189.465 83.9167 189.816 84.0859C190.168 84.2487 190.568 84.3301 191.018 84.3301C191.584 84.3301 192.089 84.2161 192.531 83.9883C192.974 83.7604 193.358 83.4382 193.684 83.0215L194.924 84.2227C194.696 84.5547 194.4 84.8737 194.035 85.1797C193.671 85.4792 193.225 85.7233 192.697 85.9121C192.176 86.1009 191.571 86.1953 190.881 86.1953ZM199.279 77.6895V86H196.926V75.4336H199.143L199.279 77.6895ZM198.859 80.3262L198.098 80.3164C198.104 79.5677 198.208 78.8809 198.41 78.2559C198.618 77.6309 198.905 77.0938 199.27 76.6445C199.641 76.1953 200.083 75.8503 200.598 75.6094C201.112 75.362 201.685 75.2383 202.316 75.2383C202.824 75.2383 203.283 75.3099 203.693 75.4531C204.11 75.5898 204.465 75.8145 204.758 76.127C205.057 76.4395 205.285 76.8464 205.441 77.3477C205.598 77.8424 205.676 78.4512 205.676 79.1738V86H203.312V79.1641C203.312 78.6562 203.238 78.2559 203.088 77.9629C202.945 77.6634 202.733 77.4518 202.453 77.3281C202.18 77.1979 201.838 77.1328 201.428 77.1328C201.024 77.1328 200.663 77.2174 200.344 77.3867C200.025 77.556 199.755 77.7871 199.533 78.0801C199.318 78.373 199.152 78.7116 199.035 79.0957C198.918 79.4798 198.859 79.89 198.859 80.3262ZM212.922 75.4336V77.1523H206.965V75.4336H212.922ZM208.684 72.8457H211.037V83.0801C211.037 83.4056 211.083 83.6562 211.174 83.832C211.271 84.0013 211.405 84.1152 211.574 84.1738C211.743 84.2324 211.942 84.2617 212.17 84.2617C212.333 84.2617 212.489 84.252 212.639 84.2324C212.788 84.2129 212.909 84.1934 213 84.1738L213.01 85.9707C212.814 86.0293 212.587 86.0814 212.326 86.127C212.072 86.1725 211.779 86.1953 211.447 86.1953C210.907 86.1953 210.428 86.1009 210.012 85.9121C209.595 85.7168 209.27 85.401 209.035 84.9648C208.801 84.5286 208.684 83.9492 208.684 83.2266V72.8457Z" fill="#69696A"/>
<rect width="40" height="40" transform="translate(0 102)" fill="#219653"/>
<path d="M20 129.352L26.0833 127.723L28.625 136L20 129.352ZM34 118.654H23.2917L20 108L16.7083 118.654H6L14.6667 125.258L11.375 135.912L20.0417 129.308L25.375 125.258L34 118.654Z" fill="white"/>
<rect width="40" height="40" transform="translate(48 102)" fill="#219653"/>
<path d="M68 129.352L74.0833 127.723L76.625 136L68 129.352ZM82 118.654H71.2917L68 108L64.7083 118.654H54L62.6667 125.258L59.375 135.912L68.0417 129.308L73.375 125.258L82 118.654Z" fill="white"/>
<rect width="40" height="40" transform="translate(96 102)" fill="#219653"/>
<path d="M116 129.352L122.083 127.723L124.625 136L116 129.352ZM130 118.654H119.292L116 108L112.708 118.654H102L110.667 125.258L107.375 135.912L116.042 129.308L121.375 125.258L130 118.654Z" fill="white"/>
<rect width="40" height="40" transform="translate(144 102)" fill="#219653"/>
<path d="M164 129.352L170.083 127.723L172.625 136L164 129.352ZM178 118.654H167.292L164 108L160.708 118.654H150L158.667 125.258L155.375 135.912L164.042 129.308L169.375 125.258L178 118.654Z" fill="white"/>
<rect width="40" height="40" transform="translate(192 102)" fill="#219653"/>
<path d="M212 129.352L218.083 127.723L220.625 136L212 129.352ZM226 118.654H215.292L212 108L208.708 118.654H198L206.667 125.258L203.375 135.912L212.042 129.308L217.375 125.258L226 118.654Z" fill="white"/>
</svg>
