<svg width="54" height="54" viewBox="0 0 54 54" fill="none" xmlns="http://www.w3.org/2000/svg">
<rect x="0.5" y="0.5" width="53" height="53" rx="26.5" fill="white"/>
<rect x="0.5" y="0.5" width="53" height="53" rx="26.5" stroke="#0038FF"/>
<path d="M38 21.0705C37.25 21.3974 36.3929 21.6154 35.5357 21.7244C36.3929 21.1795 37.1429 20.3077 37.4643 19.3269C36.6071 19.8718 35.75 20.1987 34.6786 20.4167C33.9286 19.5449 32.75 19 31.5714 19C29.2143 19 27.2857 20.9615 27.2857 23.359C27.2857 23.6859 27.2857 24.0128 27.3929 24.3397C23.8571 24.1218 20.6429 22.3782 18.5 19.7628C18.1786 20.4167 17.9643 21.1795 17.9643 21.9423C17.9643 23.4679 18.7143 24.7756 19.8929 25.5385C19.1429 25.5385 18.5 25.3205 17.9643 24.9936C17.9643 27.0641 19.4643 28.9167 21.3928 29.2436C21.0714 29.3526 20.6429 29.3526 20.2143 29.3526C19.8929 29.3526 19.6786 29.3526 19.3571 29.2436C19.8929 30.9872 21.5 32.2949 23.4286 32.2949C21.9286 33.4936 20.1071 34.1474 18.0714 34.1474C17.75 34.1474 17.4286 34.1474 17 34.0385C18.9286 35.2372 21.1786 36 23.6429 36C31.5714 36 35.8571 29.3526 35.8571 23.5769V23.032C36.7143 22.7051 37.4643 21.9423 38 21.0705Z" fill="#0038FF"/>
</svg>
