<svg width="40" height="40" viewBox="0 0 40 40" fill="none" xmlns="http://www.w3.org/2000/svg">
<rect x="0.5" y="0.5" width="39" height="39" rx="19.5" fill="white"/>
<rect x="0.5" y="0.5" width="39" height="39" rx="19.5" stroke="#E1E5F2"/>
<path d="M29.17 15.5675C28.5925 15.815 27.9325 15.98 27.2725 16.0625C27.9325 15.65 28.51 14.99 28.7575 14.2475C28.0975 14.66 27.4375 14.9075 26.6125 15.0725C26.035 14.4125 25.1275 14 24.22 14C22.405 14 20.92 15.485 20.92 17.3C20.92 17.5475 20.92 17.795 21.0025 18.0425C18.28 17.8775 15.805 16.5575 14.155 14.5775C13.9075 15.0725 13.7425 15.65 13.7425 16.2275C13.7425 17.3825 14.32 18.3725 15.2275 18.95C14.65 18.95 14.155 18.785 13.7425 18.5375C13.7425 20.105 14.8975 21.5075 16.3825 21.755C16.135 21.8375 15.805 21.8375 15.475 21.8375C15.2275 21.8375 15.0625 21.8375 14.815 21.755C15.2275 23.075 16.465 24.065 17.95 24.065C16.795 24.9725 15.3925 25.4675 13.825 25.4675C13.5775 25.4675 13.33 25.4675 13 25.385C14.485 26.2925 16.2175 26.87 18.115 26.87C24.22 26.87 27.52 21.8375 27.52 17.465V17.0525C28.18 16.805 28.7575 16.2275 29.17 15.5675Z" fill="#0038FF"/>
</svg>
