<svg width="24" height="24" viewBox="0 0 24 24" fill="none" xmlns="http://www.w3.org/2000/svg">
<path fill-rule="evenodd" clip-rule="evenodd" d="M22.292 7.80375V7.93375C22.2737 8.43386 22.0869 8.91311 21.762 9.29375L15.702 16.1637L12.912 19.3337C12.4958 19.8029 11.8991 20.0721 11.272 20.0737C11.1324 20.0885 10.9916 20.0885 10.852 20.0737H10.792C10.6776 20.0572 10.5663 20.0235 10.462 19.9737H10.352C10.2581 19.9351 10.1677 19.8882 10.082 19.8337L9.98199 19.7638L9.79199 19.6238L8.41199 21.0037C8.14724 21.268 7.78595 21.4125 7.41199 21.4037C7.14316 21.3942 6.88278 21.3074 6.66199 21.1537C6.41177 21.408 6.08506 21.5731 5.73199 21.6238L3.22199 21.9137H3.07199C2.81246 21.918 2.56144 21.8212 2.37199 21.6437L1.91199 21.1838C1.49107 20.6307 1.58393 19.8436 2.12199 19.4037L3.52199 18.0037C3.13515 17.4557 3.19844 16.7089 3.67199 16.2338L5.05199 14.8538C5.00528 14.7928 4.96188 14.7294 4.92199 14.6637C4.88884 14.6262 4.85874 14.5861 4.83199 14.5437L4.63199 14.1438C4.55199 14.0538 4.55199 13.9638 4.55199 13.8638V13.7238C4.54175 13.6173 4.54175 13.5102 4.55199 13.4038V12.9237C4.55814 12.9077 4.55814 12.8898 4.55199 12.8737C4.65414 12.4297 4.89598 12.0302 5.24199 11.7338L10.552 7.05375L15.272 2.90375C15.6853 2.54414 16.2142 2.34535 16.762 2.34375C17.3555 2.34473 17.9241 2.58226 18.342 3.00375L21.682 6.28375C21.9883 6.58702 22.2002 6.97257 22.292 7.39375C22.2873 7.41348 22.2873 7.43402 22.292 7.45375C22.3018 7.57021 22.3018 7.68729 22.292 7.80375ZM11.242 18.6338C11.4425 18.6356 11.6333 18.5475 11.762 18.3938L14.482 15.2638L20.582 8.34375C20.8461 8.06275 20.8461 7.62475 20.582 7.34375L17.282 4.04375C17.1415 3.90306 16.9508 3.82393 16.752 3.82375C16.5753 3.82283 16.4045 3.88689 16.272 4.00375L11.572 8.17375L6.15199 12.9537C6.09227 13.0163 6.04176 13.087 6.00199 13.1637V13.2137C5.98795 13.2729 5.98795 13.3346 6.00199 13.3938C5.98686 13.473 5.98686 13.5545 6.00199 13.6337C6.05233 13.7072 6.12137 13.7659 6.20199 13.8038C6.19503 13.8266 6.19503 13.8509 6.20199 13.8737L10.752 18.4738C10.828 18.5427 10.9162 18.597 11.012 18.6338C11.0716 18.6433 11.1324 18.6433 11.192 18.6338H11.242ZM3.25199 20.3937L4.11199 19.5438L4.79199 20.2138L3.25199 20.3937ZM4.82199 17.2137L7.41199 19.8438L8.71199 18.5138L6.11199 15.9137L4.82199 17.2137Z" fill="#3847FF"/>
<path d="M16.352 7.21375L11.852 11.7137C11.5595 12.0066 11.5595 12.4809 11.852 12.7738C11.9919 12.9154 12.1829 12.9947 12.382 12.9937C12.5817 12.9983 12.7741 12.9184 12.912 12.7738L17.412 8.27375C17.5549 8.13446 17.6356 7.94334 17.6356 7.74375C17.6356 7.54416 17.5549 7.35304 17.412 7.21375C17.1192 6.9213 16.6448 6.9213 16.352 7.21375Z" fill="#3847FF"/>
</svg>
